<svg xmlns="http://www.w3.org/2000/svg" viewBox="0 0 46.6 46.96"><defs><style>.cls-1{fill:#fff;}</style></defs><g id="Layer_2" data-name="Layer 2"><g id="Layer_2-2" data-name="Layer 2"><polygon class="cls-1" points="3.45 0 16.49 10.36 16.49 18.11 0 5.37 3.45 0"/><polygon class="cls-1" points="0 9.67 16.49 21.86 16.49 41.8 10.36 36.82 10.36 24.93 0 17.76 0 9.67"/><polygon class="cls-1" points="43.15 0 30.11 10.36 30.11 18.11 46.6 5.37 43.15 0"/><polygon class="cls-1" points="46.6 9.67 30.11 21.86 30.11 41.8 36.24 36.82 36.24 24.93 46.6 17.76 46.6 9.67"/><polygon class="cls-1" points="26.94 12.44 26.94 44.06 23.59 46.73 23.3 46.96 23.01 46.73 19.66 44.06 19.66 12.44 23.3 15.08 26.94 12.44"/></g></g></svg>