<?xml version="1.0" encoding="UTF-8"?>
<svg version="1.1" xmlns="http://www.w3.org/2000/svg" width="928" height="935">
<path d="M0 0 C7.67233077 4.34915386 7.67233077 4.34915386 11.20703125 6.99609375 C11.94896729 7.54789307 12.69090332 8.09969238 13.45532227 8.66821289 C14.23319092 9.25207764 15.01105957 9.83594238 15.8125 10.4375 C17.50466735 11.6960402 19.19738891 12.95383554 20.890625 14.2109375 C22.16969727 15.16178223 22.16969727 15.16178223 23.47460938 16.13183594 C27.31510816 18.97285457 31.18606672 21.77080182 35.0625 24.5625 C35.7944458 25.08980713 36.5263916 25.61711426 37.28051758 26.16040039 C38.76385063 27.22871943 40.24733069 28.29683439 41.73095703 29.36474609 C44.87671046 31.6318277 48.01710853 33.90627405 51.15722656 36.18115234 C53.42779717 37.82279666 55.70388477 39.45655417 57.98046875 41.08984375 C60.41019659 42.83654747 62.81054232 44.60844223 65.17578125 46.44140625 C66.04589844 47.10011719 66.91601562 47.75882812 67.8125 48.4375 C68.52019531 48.99308594 69.22789062 49.54867187 69.95703125 50.12109375 C71.98949393 51.22828977 71.98949393 51.22828977 74.25 50.5234375 C78.12737986 48.37545718 81.62826185 45.82238036 85.1875 43.1875 C86.80588677 42.00376568 88.42437929 40.82017591 90.04296875 39.63671875 C90.86716309 39.03134277 91.69135742 38.4259668 92.54052734 37.80224609 C96.34542185 35.01410521 100.17305754 32.25775491 104 29.5 C105.49492508 28.4207577 106.98971626 27.34132988 108.484375 26.26171875 C109.5971582 25.45806885 109.5971582 25.45806885 110.73242188 24.63818359 C113.03561684 22.97426906 115.33818908 21.30949593 117.640625 19.64453125 C121.38024908 16.94060451 125.12163199 14.23913239 128.86474609 11.54003906 C130.28739231 10.51396402 131.70959363 9.48727186 133.13134766 8.45996094 C135.10668305 7.03340727 137.0842358 5.6099882 139.0625 4.1875 C139.65256836 3.76057861 140.24263672 3.33365723 140.85058594 2.89379883 C144.88550712 0 144.88550712 0 146 0 C146.15422918 59.94928511 146.29732812 119.89859273 146.38108826 179.84802246 C146.38233077 180.73505266 146.38357328 181.62208285 146.38485345 182.53599275 C146.41178856 201.81276193 146.43672034 221.08953322 146.45958797 240.36630765 C146.47081416 249.81940088 146.48248312 259.27249354 146.49438477 268.72558594 C146.4955616 269.66629076 146.49673843 270.60699559 146.49795092 271.57620662 C146.5363147 302.07650857 146.60392505 332.57666062 146.68667499 363.07687173 C146.77154503 394.41537893 146.82696354 425.75380315 146.84523491 457.09242333 C146.84782837 461.51705501 146.8507591 465.94168642 146.85389519 470.36631775 C146.85450199 471.23716317 146.8551088 472.10800859 146.855734 473.00524326 C146.86637653 487.03310589 146.90813778 501.06071222 146.96148831 515.08847026 C147.01443937 529.18535216 147.03472053 543.28197955 147.0215124 557.37895745 C147.0146582 565.75821419 147.03299355 574.13654063 147.08717789 582.51562967 C147.12484961 588.7674069 147.11568141 595.0182834 147.08809005 601.27009481 C147.08427494 603.80322015 147.09580037 606.33642303 147.12394864 608.86939484 C147.15993546 612.30670967 147.14069932 615.73943347 147.10743046 619.17667389 C147.14289514 620.66125617 147.14289514 620.66125617 147.17907628 622.17583001 C147.08529436 626.44645258 146.83126145 629.00308832 144.04124492 632.34908742 C141.77516699 634.38607002 139.4667282 636.2140308 137 638 C135.86992722 638.90547021 134.7426689 639.81449387 133.62109375 640.73046875 C132.56193194 641.55211061 131.50069627 642.37108542 130.4375 643.1875 C125.21287136 647.24390657 120.05743672 651.37480077 114.9375 655.5625 C109.16321508 660.27939527 103.30895035 664.85901031 97.37890625 669.37890625 C92.6338696 673.02882447 88.01039418 676.83085135 83.37890625 680.62304688 C80.29611693 683.14561043 77.21813293 685.64986221 74 688 C70.13772805 686.32197408 67.01326681 683.79655142 63.75 681.1875 C63.1422876 680.70611572 62.5345752 680.22473145 61.90844727 679.72875977 C56.53132301 675.45645849 51.21279833 671.11227481 45.89355469 666.76831055 C41.81124296 663.44342436 37.68641094 660.19284987 33.5 657 C26.48454425 651.64908095 19.66270714 646.0705022 12.83007812 640.48925781 C9.48131402 637.76414295 6.10280194 635.07668401 2.72265625 632.390625 C1 631 1 631 0 630 C-0.09690749 628.61484281 -0.12447406 627.22476598 -0.1241985 625.83622307 C-0.12644579 624.93092294 -0.12869308 624.02562281 -0.13100848 623.09288934 C-0.12838146 622.08477872 -0.12575445 621.07666811 -0.12304783 620.03800869 C-0.12420167 618.97317942 -0.12535552 617.90835016 -0.12654433 616.81125334 C-0.12921955 613.1949901 -0.12468143 609.5787702 -0.12025452 605.96250916 C-0.12069003 603.36302176 -0.12156458 600.76353441 -0.12284368 598.1640473 C-0.12492324 592.48745597 -0.12326377 586.81087509 -0.11920547 581.13428497 C-0.11318758 572.69331203 -0.11286807 564.25234571 -0.11374746 555.81137101 C-0.11506356 541.61452486 -0.11171165 527.41768335 -0.10573006 513.22083855 C-0.0998198 499.15737828 -0.09596548 485.09391995 -0.09487724 471.03045845 C-0.0948085 470.15712872 -0.09473976 469.28379899 -0.09466894 468.38400472 C-0.09433062 463.94908538 -0.09402923 459.51416605 -0.09374207 455.07924671 C-0.09163978 423.63933698 -0.08489721 392.19942978 -0.07543945 360.75952148 C-0.06626004 330.20971693 -0.05917397 299.65991307 -0.05493164 269.11010742 C-0.05480011 268.16898372 -0.05466859 267.22786003 -0.05453308 266.25821743 C-0.05321459 256.8073551 -0.05193877 247.35649277 -0.05069422 237.90563043 C-0.04815778 218.65189506 -0.04533652 199.39815974 -0.04234314 180.14442444 C-0.04220585 179.25910371 -0.04206856 178.37378298 -0.04192711 177.46163434 C-0.03272124 118.30775517 -0.01687544 59.15387742 0 0 Z " fill="#050505" transform="translate(391,247)"/>
<path d="M0 0 C0.35091059 20.93157886 0.6151581 41.86267068 0.77718258 62.79659748 C0.85442557 72.51750003 0.95966141 82.23657179 1.1315918 91.95629883 C1.28143508 100.43144119 1.37794856 108.90525761 1.41132742 117.38168782 C1.4308326 121.86787247 1.47641208 126.35026529 1.58595085 130.83522987 C2.27967092 160.3546292 2.27967092 160.3546292 -3.26998901 166.57939148 C-6.86930539 169.61959638 -10.63584228 171.28921921 -15 173 C-16.63668326 174.07034459 -18.25199166 175.17683252 -19.8125 176.35546875 C-21.20671729 177.30186429 -22.60255285 178.24588021 -24 179.1875 C-31.26250736 184.11952936 -38.48594199 189.1043872 -45.6875 194.125 C-52.11213815 198.60231472 -58.54091402 203.07250276 -65 207.5 C-71.52082643 211.97020374 -78.01255512 216.48150726 -84.5 221 C-90.9874463 225.51849372 -97.47927557 230.02964604 -104 234.5 C-114.37108757 241.61218052 -124.68107039 248.81246993 -135 256 C-157.39774989 271.60089146 -157.39774989 271.60089146 -167.84521484 278.76538086 C-173.93389695 282.94519153 -179.99916881 287.15852362 -186.0625 291.375 C-187.03896484 292.05369141 -188.01542969 292.73238281 -189.02148438 293.43164062 C-189.95412109 294.08068359 -190.88675781 294.72972656 -191.84765625 295.3984375 C-192.73340332 296.01428711 -193.61915039 296.63013672 -194.53173828 297.26464844 C-196.72824334 298.80893706 -198.89503887 300.38671556 -201.05859375 301.9765625 C-204 304 -204 304 -206 304 C-205.99078207 305.21313842 -205.98156414 306.42627684 -205.97206688 307.67617702 C-205.75537169 336.4897839 -205.59053708 365.30337661 -205.48934671 394.11761009 C-205.47684001 397.66605464 -205.46389675 401.21449747 -205.45068359 404.76293945 C-205.44806049 405.46935436 -205.44543739 406.17576927 -205.44273479 406.90359069 C-205.39925079 418.33383033 -205.32042217 429.76356576 -205.22847204 441.19350653 C-205.13487343 452.92643728 -205.07939496 464.65910442 -205.05911505 476.39239317 C-205.04607923 482.981097 -205.01545149 489.56865823 -204.94269943 496.15699577 C-204.87475764 502.36005176 -204.85389699 508.56149603 -204.86892319 514.76488876 C-204.8661749 517.03974102 -204.84631894 519.31464785 -204.80794525 521.58917809 C-204.53219433 538.77881876 -204.53219433 538.77881876 -208.1815834 544.30131721 C-210.68404229 546.59177207 -213.07424555 548.30282515 -216 550 C-217.1620955 550.9122474 -218.31148599 551.84115917 -219.44140625 552.79296875 C-220.47136719 553.58316406 -221.50132812 554.37335937 -222.5625 555.1875 C-227.90878382 559.32823468 -233.16437597 563.56484583 -238.375 567.875 C-245.88570595 574.08590643 -253.43626898 580.2451951 -261.00732422 586.38232422 C-263.02952301 588.0239671 -265.04839838 589.66961516 -267.06640625 591.31640625 C-273.39590577 596.47802573 -279.74461594 601.60537654 -286.1875 606.625 C-291.36000268 610.65691828 -296.39605354 614.8234333 -301.38305664 619.08203125 C-305.36073338 622.47527533 -309.40583448 625.76657741 -313.5078125 629.0078125 C-317.30791508 632.04551205 -321.02659943 635.18145861 -324.75 638.3125 C-327 640 -327 640 -329 640 C-329.43506853 589.53589614 -329.7697731 539.07198208 -329.97024126 488.60637104 C-329.99400415 482.64594351 -330.01859632 476.68551967 -330.04370117 470.72509766 C-330.04868507 469.53850532 -330.05366897 468.35191299 -330.05880389 467.12936331 C-330.14143743 447.92619622 -330.29121881 428.7241119 -330.46590313 409.52158676 C-330.64370301 389.81191045 -330.7491414 370.10280043 -330.7876814 350.39235508 C-330.81372903 338.23318415 -330.89592524 326.07707359 -331.05041287 313.91884507 C-331.15099969 305.57670576 -331.1811702 297.2361438 -331.15652617 288.89344238 C-331.14437509 284.08162786 -331.16272201 279.2751505 -331.26490402 274.46429062 C-331.87744128 244.13069913 -331.87744128 244.13069913 -324.95910072 236.79370499 C-321.11087078 233.59737248 -317.0452416 231.33902668 -312.51192057 229.26218438 C-308.12409344 227.05739855 -304.37103225 223.99433223 -300.5 221 C-298.92325912 219.83230158 -297.34414007 218.66780137 -295.76171875 217.5078125 C-294.97845215 216.93063477 -294.19518555 216.35345703 -293.38818359 215.75878906 C-290.97450933 213.98122728 -288.55965879 212.20527414 -286.14453125 210.4296875 C-278.73980537 204.98363105 -271.34575634 199.52542234 -264 194 C-255.8501105 187.86971479 -247.6397739 181.82289741 -239.42333984 175.78222656 C-235.44677482 172.85769254 -231.47353729 169.92864567 -227.5 167 C-225.91668304 165.83331112 -224.33334969 164.66664447 -222.75 163.5 C-221.96625 162.9225 -221.1825 162.345 -220.375 161.75 C-213.25 156.5 -213.25 156.5 -210.87524414 154.75024414 C-209.29101519 153.58287469 -207.70686812 152.41539412 -206.12280273 151.24780273 C-202.1788343 148.34097443 -198.23348838 145.4360552 -194.28515625 142.53515625 C-186.16028254 136.56256696 -178.06059382 130.55912726 -170 124.5 C-161.16039751 117.85529396 -152.27059733 111.28145441 -143.35888672 104.73388672 C-139.40320379 101.82628372 -135.45183011 98.91283606 -131.5 96 C-129.91668712 94.83330558 -128.33335379 93.6666389 -126.75 92.5 C-125.96625 91.9225 -125.1825 91.345 -124.375 90.75 C-117.25 85.5 -117.25 85.5 -114.87426758 83.74951172 C-113.29331017 82.58456151 -111.71241808 81.41952266 -110.1315918 80.25439453 C-106.13744172 77.3107302 -102.1421157 74.36868654 -98.14453125 71.4296875 C-90.73980537 65.98363105 -83.34575634 60.52542234 -76 55 C-67.8501105 48.86971479 -59.6397739 42.82289741 -51.42333984 36.78222656 C-46.66201606 33.28054778 -41.90501579 29.77299711 -37.14770508 26.26586914 C-33.06727906 23.25823911 -28.98467208 20.25364108 -24.8984375 17.25390625 C-23.63676758 16.32674805 -23.63676758 16.32674805 -22.34960938 15.38085938 C-20.76051019 14.21317876 -19.17072479 13.0464311 -17.58007812 11.88085938 C-12.91902386 8.45397659 -8.35533331 4.93299998 -3.85205078 1.30053711 C-2 0 -2 0 0 0 Z " fill="#050505" transform="translate(928,192)"/>
<path d="M0 0 C2.72110121 1.33462468 5.1685726 2.73309546 7.625 4.51171875 C8.32101318 5.01437256 9.01702637 5.51702637 9.73413086 6.03491211 C10.48186768 6.58026611 11.22960449 7.12562012 12 7.6875 C12.78963135 8.26056885 13.5792627 8.8336377 14.39282227 9.42407227 C21.13136808 14.33090888 27.80305046 19.32517049 34.46264648 24.33837891 C42.47975345 30.37229457 50.55501446 36.32513498 58.64111328 42.26611328 C62.59679612 45.17371621 66.54821092 48.08710842 70.5 51 C75.28347453 54.52572937 80.06771953 58.05038927 84.85546875 61.5703125 C92.91517608 67.49809725 100.95324903 73.45167967 108.94873047 79.46582031 C116.4520678 85.10309086 124.01530541 90.65871279 131.57666016 96.21777344 C135.55322518 99.14230746 139.52646271 102.07135433 143.5 105 C145.08331696 106.16668888 146.66665031 107.33335553 148.25 108.5 C151.41666667 110.83333333 154.58333333 113.16666667 157.75 115.5 C158.5339917 116.07766113 159.3179834 116.65532227 160.12573242 117.25048828 C161.70668983 118.41543849 163.28758192 119.58047734 164.8684082 120.74560547 C168.86255828 123.6892698 172.8578843 126.63131346 176.85546875 129.5703125 C184.91517608 135.49809725 192.95324903 141.45167967 200.94873047 147.46582031 C208.4520678 153.10309086 216.01530541 158.65871279 223.57666016 164.21777344 C228.34305926 167.72318483 233.10495536 171.23471035 237.86767578 174.74511719 C241.86210321 177.68889913 245.85764819 180.63113986 249.85546875 183.5703125 C257.91517608 189.49809725 265.95324903 195.45167967 273.94873047 201.46582031 C281.44036266 207.09429677 288.99186014 212.64113527 296.54150391 218.19140625 C299.04341172 220.03193585 301.54348032 221.87493638 304.04296875 223.71875 C305.28856567 224.63744873 305.28856567 224.63744873 306.55932617 225.57470703 C308.12084229 226.72651456 309.68221663 227.87851433 311.2434082 229.03076172 C311.9674585 229.56459473 312.69150879 230.09842773 313.4375 230.6484375 C314.11795197 231.16870687 314.79840393 231.68897624 315.49947566 232.22501135 C317.98325745 234.06493864 317.98325745 234.06493864 320.80530196 235.51228189 C325.34332583 238.16367763 328.44932634 240.17569029 330.00977838 245.34526348 C330.39136187 249.62439126 330.41555529 253.78218971 330.32279968 258.07165527 C330.32759961 259.72025061 330.33723677 261.36883773 330.35128051 263.01738024 C330.37584261 267.53821196 330.33193858 272.05616943 330.27672184 276.57663488 C330.22917611 281.45451975 330.24529667 286.3322452 330.25364685 291.21029663 C330.25941224 299.65852713 330.22492868 308.10582248 330.16303062 316.55381775 C330.07359619 328.7680008 330.04498122 340.98173211 330.03116272 353.19620711 C330.00709333 373.01354801 329.93390464 392.83039058 329.82983398 412.64746094 C329.72885006 431.89678455 329.65099478 451.14597276 329.60424805 470.39550781 C329.59991311 472.17559149 329.59991311 472.17559149 329.5954906 473.99163646 C329.58113509 479.94513089 329.56723432 485.89862628 329.55355966 491.85212231 C329.43954301 541.2350926 329.24581382 590.61752198 329 640 C326.08843059 638.58838286 323.72795375 637.10331226 321.2421875 635.0234375 C320.18825806 634.14739868 320.18825806 634.14739868 319.11303711 633.25366211 C318.00520874 632.32372437 318.00520874 632.32372437 316.875 631.375 C315.33244847 630.09194615 313.78948252 628.80939036 312.24609375 627.52734375 C311.5072998 626.9122998 310.76850586 626.29725586 310.00732422 625.66357422 C307.67172528 623.72794162 305.31212101 621.82501927 302.9375 619.9375 C296.61640946 614.9105752 290.36125478 609.80258674 284.09667969 604.70556641 C280.06811156 601.42848479 276.03716738 598.15432556 272.00585938 594.88061523 C268.64432765 592.15039757 265.2849562 589.41759962 261.9296875 586.6796875 C255.60113824 581.51982504 249.25398092 576.39342572 242.8125 571.375 C237.73684465 567.41933165 232.80123382 563.32962899 227.91577148 559.14208984 C223.24573349 555.15880113 218.43954645 551.36426924 213.58007812 547.61523438 C206.17265722 541.87684908 206.17265722 541.87684908 205.62740451 539.10775357 C205.62854367 538.38894299 205.62968283 537.6701324 205.63085651 536.92953968 C205.62488337 536.09800178 205.61891022 535.26646389 205.61275607 534.40972787 C205.6214946 533.49631165 205.63023312 532.58289543 205.63923645 531.64179993 C205.63667318 530.67143474 205.6341099 529.70106956 205.63146895 528.70129937 C205.62650995 525.43522107 205.64305906 522.16960048 205.65942383 518.90356445 C205.66026964 516.56817638 205.65979585 514.23278751 205.65809631 511.8973999 C205.65723315 505.54440497 205.67491086 499.19157887 205.69581819 492.83862329 C205.71263689 486.87592585 205.71568521 480.91323515 205.7187738 474.9505172 C205.72534195 463.13909866 205.74531295 451.32774223 205.77368164 439.51635742 C205.80121282 428.04175121 205.822451 416.56716186 205.83520508 405.0925293 C205.83638733 404.03183462 205.83638733 404.03183462 205.83759347 402.94971178 C205.84150855 399.4022989 205.84529968 395.8548859 205.84902918 392.30747283 C205.88013641 362.8716085 205.93320488 333.43580491 206 304 C205.38552002 303.69852051 204.77104004 303.39704102 204.13793945 303.08642578 C193.03366699 297.44362431 182.86648883 289.05837143 172.671875 281.94921875 C168.12697281 278.78117227 163.57009345 275.63156088 159 272.5 C151.47001467 267.33818913 143.97961028 262.12003984 136.48828125 256.90234375 C131.0038967 253.08428476 125.51172358 249.27847717 120 245.5 C112.4701325 240.33801536 104.97961198 235.12004103 97.48828125 229.90234375 C92.0038967 226.08428476 86.51172358 222.27847717 81 218.5 C73.4701325 213.33801536 65.97961198 208.12004103 58.48828125 202.90234375 C53.00389481 199.08428344 47.51158032 195.27868802 42 191.5 C35.38088638 186.95901062 28.78071671 182.39100539 22.1875 177.8125 C21.24455078 177.15894531 20.30160156 176.50539063 19.33007812 175.83203125 C17.52868657 174.57976747 15.73710135 173.31322409 13.95781422 172.02974701 C11.07151615 169.97360928 11.07151615 169.97360928 8.09634686 168.42441559 C3.6111655 165.7915843 0.54217025 163.8076792 -0.99300194 158.68917847 C-1.35707005 154.49280547 -1.36345623 150.42528369 -1.2487793 146.22070312 C-1.24567302 144.62348649 -1.24742495 143.02625417 -1.25364685 141.42904663 C-1.25679333 137.11008641 -1.19229851 132.7945112 -1.11533332 128.47633553 C-1.0463968 123.95750392 -1.04009412 119.43858782 -1.02705383 114.91931152 C-0.99291344 106.36941774 -0.90271708 97.82107787 -0.79220945 89.27186728 C-0.66910091 79.53569056 -0.6087387 69.79943816 -0.55355966 60.06267643 C-0.4386933 40.04091817 -0.24531175 20.02055711 0 0 Z " fill="#050505" transform="translate(0,192)"/>
<path d="M0 0 C1.64698443 2.28303998 3.07960208 4.51757314 4.5 6.9375 C5.40228498 8.42790803 6.30597484 9.9174663 7.2109375 11.40625 C7.90654785 12.55867187 7.90654785 12.55867187 8.61621094 13.734375 C10.71992583 17.17870707 12.91904252 20.55808196 15.125 23.9375 C19.78355747 31.10366633 24.39705879 38.29799817 29 45.5 C33.898534 53.16273121 38.81103397 60.81560951 43.76196289 68.44458008 C48.7173302 76.08955345 53.61763849 83.76989331 58.51953125 91.44921875 C61.63722112 96.32908115 64.75914171 101.20087737 68 106 C66.4923068 109.85489738 64.33174453 111.4965046 61 113.875 C59.91401119 114.66350394 58.82946966 115.45400361 57.74609375 116.24609375 C56.85253174 116.89747314 56.85253174 116.89747314 55.94091797 117.56201172 C52.26321045 120.28675351 48.66824174 123.11865189 45.0625 125.9375 C43.50798785 127.14996444 41.95330224 128.36220651 40.3984375 129.57421875 C39.65045898 130.1573584 38.90248047 130.74049805 38.13183594 131.34130859 C32.09342517 136.0395407 26.01530729 140.68646499 19.9453125 145.34375 C13.61309636 150.20739731 7.30009723 155.09480199 1 160 C-7.32556705 166.48221026 -15.68336518 172.92074055 -24.0546875 179.34375 C-30.38690364 184.20739731 -36.69990277 189.09480199 -43 194 C-50.31285424 199.69372134 -57.64770031 205.35732018 -65 211 C-67.16710847 212.66609253 -69.33357339 214.33302098 -71.5 216 C-74.69018605 218.45472115 -77.88096517 220.90864417 -81.07421875 223.359375 C-87.40043765 228.21714911 -93.70648008 233.09992302 -100 238 C-108.32556705 244.48221026 -116.68336518 250.92074055 -125.0546875 257.34375 C-131.38690364 262.20739731 -137.69990277 267.09480199 -144 272 C-152.32556705 278.48221026 -160.68336518 284.92074055 -169.0546875 291.34375 C-175.38690364 296.20739731 -181.69990277 301.09480199 -188 306 C-196.32556705 312.48221026 -204.68336518 318.92074055 -213.0546875 325.34375 C-220.16356649 330.80393636 -227.24580121 336.29739353 -234.31787109 341.80517578 C-239.96112609 346.19812156 -245.62350622 350.56519561 -251.30078125 354.9140625 C-253.13733861 356.33334127 -254.94675776 357.78828758 -256.73046875 359.2734375 C-259 361 -259 361 -261 361 C-261.3275583 340.85062731 -261.57416789 320.70179733 -261.72537041 300.55031109 C-261.79745486 291.19270837 -261.89565875 281.8367631 -262.05615234 272.48022461 C-262.19603242 264.32150968 -262.28609181 256.16399521 -262.31723893 248.00411445 C-262.33543893 243.6857619 -262.3779522 239.37084229 -262.48022079 235.05359459 C-263.12685291 206.66495886 -263.12685291 206.66495886 -258.03179932 200.57217407 C-255.23573889 198.05127706 -252.29205531 196.38672866 -248.85015392 194.90163612 C-245.58341099 193.30965321 -242.90262138 190.94021274 -240.125 188.625 C-239.47974365 188.1196875 -238.8344873 187.614375 -238.16967773 187.09375 C-233.8001925 183.65492448 -229.49057338 180.14636502 -225.1875 176.625 C-219.72700927 172.15840713 -214.18794434 167.81920895 -208.5625 163.5625 C-202.0244887 158.6139675 -195.67573078 153.47713673 -189.37524414 148.23071289 C-183.82279184 143.62737592 -178.12895712 139.24173047 -172.375 134.89453125 C-167.31160526 131.05044664 -162.38495957 127.06780641 -157.5 123 C-151.24668308 117.79273425 -144.8672286 112.79950543 -138.375 107.89453125 C-133.31160526 104.05044664 -128.38495957 100.06780641 -123.5 96 C-117.24668308 90.79273425 -110.8672286 85.79950543 -104.375 80.89453125 C-99.31160526 77.05044664 -94.38495957 73.06780641 -89.5 69 C-83.24668308 63.79273425 -76.8672286 58.79950543 -70.375 53.89453125 C-65.31160526 50.05044664 -60.38495957 46.06780641 -55.5 42 C-49.93065593 37.36229253 -44.28255607 32.86899804 -38.5 28.5 C-32.57698914 24.02329778 -26.78106728 19.42277275 -21.0625 14.6875 C-20.35335449 14.10081543 -19.64420898 13.51413086 -18.91357422 12.90966797 C-16.38415288 10.81382768 -13.8563716 8.71611467 -11.33642578 6.60888672 C-9.93787902 5.44125966 -8.53178505 4.28268813 -7.125 3.125 C-6.38507813 2.50882812 -5.64515625 1.89265625 -4.8828125 1.2578125 C-3 0 -3 0 0 0 Z " fill="#050505" transform="translate(860,0)"/>
<path d="M0 0 C3.27378106 0.59953907 5.12887087 1.661988 7.65234375 3.80859375 C8.33949463 4.38552979 9.02664551 4.96246582 9.73461914 5.55688477 C10.46156982 6.17748779 11.18852051 6.79809082 11.9375 7.4375 C13.47516756 8.72822615 15.01424138 10.01727876 16.5546875 11.3046875 C17.69115723 12.25553223 17.69115723 12.25553223 18.85058594 13.22558594 C21.70221792 15.57970466 24.61748269 17.82605829 27.5625 20.0625 C32.37289683 23.71959672 37.07669853 27.48209218 41.75 31.3125 C47.2304951 35.80157525 52.78765009 40.16374572 58.4375 44.4375 C64.97559629 49.38591513 71.32427476 54.52286788 77.62475586 59.76928711 C82.49291829 63.80530414 87.45477122 67.68825546 92.5 71.5 C99.01965052 76.42569184 105.34639159 81.54120476 111.625 86.76953125 C116.49312009 90.80541758 121.4548629 94.68832473 126.5 98.5 C133.01965052 103.42569184 139.34639159 108.54120476 145.625 113.76953125 C150.49312009 117.80541758 155.4548629 121.68832473 160.5 125.5 C167.01965052 130.42569184 173.34639159 135.54120476 179.625 140.76953125 C184.49312009 144.80541758 189.4548629 148.68832473 194.5 152.5 C201.01965052 157.42569184 207.34639159 162.54120476 213.625 167.76953125 C219.17016511 172.36671776 224.85536155 176.74811604 230.60302734 181.08789062 C236.60735595 185.64433735 242.42974062 190.40153368 248.20507812 195.24414062 C248.86185547 195.79263672 249.51863281 196.34113281 250.1953125 196.90625 C250.76266113 197.38384766 251.33000977 197.86144531 251.91455078 198.35351562 C254.11572766 200.22074513 254.11572766 200.22074513 257.58067322 201.67240906 C260.27974161 203.62490245 260.92376976 204.64762783 261.63754272 207.94702339 C261.86537175 211.9367441 261.86614044 215.89545524 261.79467773 219.88793945 C261.7927025 221.42560231 261.79381295 222.96327177 261.79777527 224.50093079 C261.79978304 228.67050275 261.75864259 232.83866394 261.70975757 237.00790811 C261.66598542 241.36670536 261.66188547 245.72553531 261.65357971 250.08451843 C261.63182648 258.33658411 261.5743886 266.58800031 261.50413328 274.83978003 C261.42587966 284.2350304 261.38740083 293.63031187 261.35226524 303.02580702 C261.27910542 322.35090619 261.1559884 341.67540087 261 361 C257.42043468 359.28203695 254.51286383 357.19866893 251.375 354.75 C250.81941406 354.31816406 250.26382812 353.88632812 249.69140625 353.44140625 C248.46204084 352.48523315 247.23391239 351.52746817 246.00683594 350.56835938 C243.11375306 348.30739047 240.21434375 346.05457993 237.31567383 343.80078125 C235.76571599 342.59545821 234.21607647 341.38972574 232.66674805 340.18359375 C226.13099858 335.09630768 219.57032331 330.04253529 213 325 C210.28698414 322.91420895 207.57495518 320.82713522 204.86279297 318.74023438 C202.21822514 316.70558632 199.57277553 314.67211744 196.92578125 312.640625 C189.81701424 307.1819482 182.73656378 301.68784519 175.66455078 296.18164062 C169.12924698 291.09539103 162.57020361 286.04107694 156 281 C147.8641588 274.75766659 139.75591816 268.48150517 131.66455078 262.18164062 C125.12924698 257.09539103 118.57020361 252.04107694 112 247 C103.8641588 240.75766659 95.75591816 234.48150517 87.66455078 228.18164062 C81.12924698 223.09539103 74.57020361 218.04107694 68 213 C59.8641588 206.75766659 51.75591816 200.48150517 43.66455078 194.18164062 C37.12924698 189.09539103 30.57020361 184.04107694 24 179 C15.8641588 172.75766659 7.75591816 166.48150517 -0.33544922 160.18164062 C-6.87075302 155.09539103 -13.42979639 150.04107694 -20 145 C-27.27045721 139.42164408 -34.52138527 133.81996617 -41.75 128.1875 C-50.45800063 121.40308839 -59.21986325 114.69068648 -68 108 C-66.43304759 103.48855461 -63.99721487 99.70226895 -61.375 95.75 C-60.38201913 94.23489467 -59.38988488 92.71923425 -58.3984375 91.203125 C-57.58584473 89.96272461 -57.58584473 89.96272461 -56.75683594 88.69726562 C-53.47124756 83.65291037 -50.23954882 78.57399212 -47 73.5 C-42.09671372 65.82896924 -37.1779511 58.16876867 -32.22265625 50.53125 C-27.42720662 43.13174315 -22.683586 35.69911239 -17.93530273 28.26928711 C-13.37968868 21.14454089 -8.80217642 14.03459913 -4.18554688 6.94921875 C-1.96036861 3.5520299 -1.96036861 3.5520299 0 0 Z " fill="#050505" transform="translate(68,0)"/>
</svg>
