<?xml version="1.0" encoding="UTF-8"?>
<svg version="1.1" xmlns="http://www.w3.org/2000/svg" width="3579" height="2713">
<path d="M0 0 C1181.07 0 2362.14 0 3579 0 C3579 895.29 3579 1790.58 3579 2713 C2397.93 2713 1216.86 2713 0 2713 C0 1817.71 0 922.42 0 0 Z " fill="#FEFEFE" transform="translate(0,0)"/>
<path d="M0 0 C2.90340834 1.71989294 5.62413007 3.3754699 8.1640625 5.6015625 C9.00227539 6.32956055 9.00227539 6.32956055 9.85742188 7.07226562 C10.44072266 7.58466797 11.02402344 8.09707031 11.625 8.625 C12.8767397 9.71193384 14.12935241 10.79786307 15.3828125 11.8828125 C16.30562012 12.68187012 16.30562012 12.68187012 17.24707031 13.49707031 C19.63062573 15.54068691 22.06044276 17.52374146 24.5 19.5 C29.34596789 23.4337857 34.08098528 27.48447759 38.80859375 31.55859375 C42.33317903 34.58958284 45.89048832 37.56992581 49.5 40.5 C53.7279248 43.93208013 57.8752789 47.44551171 62 51 C67.01591689 55.32172863 72.09175299 59.55479196 77.23046875 63.73046875 C83.10799411 68.54688939 88.87611914 73.494943 94.66601562 78.41601562 C100.22068034 83.1351961 105.78059925 87.84075049 111.4375 92.4375 C116.29080883 96.38655333 121.03847089 100.44765895 125.77758789 104.53198242 C131.1086828 109.11679794 136.53104545 113.58019183 142 118 C148.07981173 113.65727733 153.67600861 108.86629506 159.29492188 103.95458984 C163.852755 99.97608486 168.48947379 96.11625079 173.19140625 92.30859375 C176.5029848 89.58655909 179.75313059 86.79860269 183 84 C187.98936093 79.70022006 193.04221344 75.49514438 198.15625 71.34375 C201.47686594 68.60697862 204.74043709 65.80893615 208 63 C213.01591689 58.67827137 218.09175299 54.44520804 223.23046875 50.26953125 C228.54441666 45.91494206 233.76526766 41.44921565 239 37 C245.10888035 31.80780978 251.21510641 26.61876419 257.4375 21.5625 C262.38140513 17.53923409 267.22708932 13.40989643 272.05444336 9.24829102 C273.16069156 8.29473939 274.26831771 7.34278359 275.37744141 6.39257812 C276.483277 5.44348299 277.58434157 4.4888072 278.68115234 3.52929688 C282.777569 0 282.777569 0 285 0 C285.08247369 43.62125093 285.16155253 87.24250771 285.23803711 130.86376953 C285.23953407 131.71736162 285.24103104 132.57095371 285.24257337 133.45041222 C285.40287668 224.91042151 285.54122481 316.37043278 285.63514709 407.83053589 C285.63723885 409.86202317 285.63933063 411.89351046 285.64142242 413.92499774 C285.68526234 456.56609669 285.72601312 499.20719813 285.76319517 541.8483034 C285.78187615 563.26822257 285.80115075 584.68814118 285.82098662 606.10805931 C285.82397535 609.33918072 285.82694713 612.57030214 285.8299182 615.80142357 C285.87581999 665.55837131 285.93445592 715.31526402 286.02996826 765.07214355 C286.03304848 766.67696824 286.03304848 766.67696824 286.03619093 768.31421363 C286.06937666 785.5639867 286.10363074 802.81375765 286.13802661 820.06352834 C286.23707653 869.7459341 286.32823141 919.42829755 286.3670969 969.11079216 C286.36789993 970.13239592 286.36870295 971.15399969 286.36953031 972.20656114 C286.38701646 994.63283395 286.40043941 1017.05910728 286.41001474 1039.4853848 C286.41393909 1048.50886104 286.41844839 1057.53233697 286.42315865 1066.55581284 C286.42366005 1067.54339509 286.42416146 1068.53097734 286.42467806 1069.54848633 C286.44112658 1101.37259331 286.5051985 1133.19638597 286.59423313 1165.02036608 C286.6836981 1197.0760481 286.7264906 1229.13142507 286.70435982 1261.1872351 C286.70131359 1265.61656691 286.69880286 1270.04589886 286.69661522 1274.47523117 C286.69616701 1275.34350968 286.6957188 1276.2117882 286.69525701 1277.10637818 C286.68954617 1290.85773456 286.73432244 1304.60844571 286.80014794 1318.35962625 C286.86383267 1331.88022751 286.8740935 1345.39999216 286.8274772 1358.9206726 C286.80175496 1366.84893065 286.81708263 1374.77453609 286.89325503 1382.7024846 C286.94522422 1388.58865758 286.91888729 1394.47279165 286.86209964 1400.35897773 C286.85138217 1402.72510337 286.86584751 1405.09151069 286.90852867 1407.45727562 C287.22073689 1425.93344653 287.22073689 1425.93344653 281.7549547 1432.38809954 C278.69658151 1435.46688762 275.40298317 1438.09658117 271.87570072 1440.61570182 C268.97275527 1442.75812362 266.43012425 1445.20663518 263.8125 1447.6875 C261.8753333 1449.45869793 259.93783605 1451.22953441 258 1453 C255.99926338 1454.83253019 253.99962374 1456.66625561 252 1458.5 C249.01244615 1461.23907634 246.024547 1463.97777217 243.03515625 1466.71484375 C237.84702953 1471.46607559 232.66726439 1476.22608074 227.5 1481 C220.85735983 1487.13698573 214.19088363 1493.24768607 207.52050781 1499.35449219 C201.28637461 1505.06260755 195.0639464 1510.7830084 188.85571289 1516.51928711 C184.75321792 1520.30851177 180.63855333 1524.0842269 176.51953125 1527.85546875 C172.83790858 1531.22787377 169.16719615 1534.61191852 165.5 1538 C163.87786364 1539.49733789 162.25559644 1540.99453392 160.63330078 1542.49169922 C159.52956417 1543.51096451 158.42638829 1544.53083729 157.32373047 1545.55126953 C155.69657 1547.0567376 154.06724294 1548.5598286 152.4375 1550.0625 C151.48746094 1550.94035156 150.53742188 1551.81820312 149.55859375 1552.72265625 C147.43694623 1554.6110845 145.30536663 1556.34556042 143 1558 C139.993182 1556.66000502 138.00237391 1555.20154709 135.75 1552.8125 C133.3691584 1550.29611543 130.87176657 1547.99161174 128.2578125 1545.72265625 C124.11392773 1542.12495001 120.11092092 1538.39596747 116.125 1534.625 C111.01224333 1529.80860094 105.86291778 1525.04718972 100.62109375 1520.37109375 C97.21082321 1517.28609491 93.85614181 1514.14365948 90.5 1511 C85.55126849 1506.36551264 80.56598105 1501.78131528 75.51171875 1497.26171875 C70.8582295 1493.07140728 66.27312358 1488.80653832 61.67773438 1484.55273438 C58.9328251 1482.01233522 56.18540353 1479.47465958 53.4375 1476.9375 C52.89963867 1476.44088867 52.36177734 1475.94427734 51.80761719 1475.43261719 C46.2180169 1470.27428202 40.61005357 1465.13606885 35 1460 C33.02055919 1458.18779908 31.04135401 1456.37534168 29.0625 1454.5625 C28.57144775 1454.11269775 28.08039551 1453.66289551 27.57446289 1453.19946289 C24.94687908 1450.79080876 22.32398499 1448.37723311 19.70703125 1445.95703125 C18.8725647 1445.18540649 18.8725647 1445.18540649 18.02124023 1444.39819336 C16.97720006 1443.43218911 15.93367965 1442.46562256 14.89086914 1441.49829102 C14.3983667 1441.04252686 13.90586426 1440.5867627 13.3984375 1440.1171875 C12.91283354 1439.64102134 12.42722959 1439.16485518 11.92691036 1438.67425975 C10.00610056 1436.90132844 10.00610056 1436.90132844 7.52388034 1435.54981107 C3.66590176 1432.96527378 0.64792661 1430.45383929 -0.57991308 1425.80374278 C-1.55963307 1418.77685709 -1.31508225 1411.66750771 -1.23047829 1404.59096432 C-1.2378752 1402.14510711 -1.24966164 1399.69925992 -1.26544327 1397.25344244 C-1.28975555 1391.91663856 -1.28290604 1386.58121457 -1.24883182 1381.24456137 C-1.19802416 1373.25583364 -1.20511398 1365.26786767 -1.22349758 1357.27903673 C-1.25315213 1343.66421792 -1.23543386 1330.04982778 -1.19205475 1316.43506241 C-1.14828491 1302.63691477 -1.12632755 1288.83898873 -1.13107681 1275.04076958 C-1.13136373 1274.16951583 -1.13165066 1273.29826208 -1.13194627 1272.4006067 C-1.13351001 1267.95814034 -1.1354295 1263.5156742 -1.13747464 1259.07320804 C-1.15155271 1226.9116033 -1.1172307 1194.75019584 -1.05730057 1162.58865166 C-0.99808745 1130.7358242 -0.959552 1098.88308119 -0.94877243 1067.03019905 C-0.94842831 1066.04118052 -0.94808419 1065.05216198 -0.94772965 1064.03317319 C-0.94459768 1055.00008769 -0.94172077 1045.96700212 -0.9391499 1036.93391645 C-0.93275572 1014.47810662 -0.92316236 992.02229877 -0.91139793 969.56649113 C-0.91086476 968.5438734 -0.91033158 967.52125566 -0.90978225 966.46764952 C-0.88356344 916.71627554 -0.82048637 866.96495733 -0.75439453 817.21362305 C-0.73147804 799.94757123 -0.70872446 782.68151922 -0.68664551 765.41546631 C-0.68527602 764.34463231 -0.68390652 763.2737983 -0.68249553 762.17051478 C-0.61906133 712.39538496 -0.58180096 662.62024557 -0.55129756 612.84508594 C-0.54931692 609.61386955 -0.54732499 606.38265317 -0.54533076 603.15143679 C-0.53213302 581.73809851 -0.51938651 560.32475998 -0.50694217 538.91142125 C-0.48217679 496.30374877 -0.45475995 453.69607812 -0.4255217 411.08840849 C-0.4241293 409.05929428 -0.42273876 407.03018007 -0.42135007 405.00106586 C-0.35881474 313.64838809 -0.2654339 222.2957512 -0.15869141 130.94311523 C-0.15769205 130.08767717 -0.1566927 129.2322391 -0.15566306 128.35087867 C-0.10565787 85.56725012 -0.05389271 42.78362383 0 0 Z " fill="#050505" transform="translate(1647,563)"/>
<path d="M0 0 C1.27167386 0.94257391 2.5417988 1.88723776 3.8112793 2.83276367 C4.87248238 3.62151131 4.87248238 3.62151131 5.9551239 4.42619324 C8.74367664 6.57235904 11.25273116 8.89593501 13.8125 11.3125 C18.40534106 15.59702366 23.13926125 19.62329463 28.03125 23.56640625 C33.49105021 28.04200563 38.77926309 32.71834734 44.10351562 37.35351562 C47.07855189 39.93637409 50.0694406 42.50056914 53.0625 45.0625 C53.63589111 45.55339111 54.20928223 46.04428223 54.80004883 46.55004883 C55.95530518 47.53885203 57.11065976 48.52754049 58.26611328 49.51611328 C61.1789405 52.00895527 64.08931198 54.504661 67 57 C67.8652832 57.7415332 67.8652832 57.7415332 68.74804688 58.49804688 C71.67818993 61.00913036 74.60746996 63.52120868 77.53515625 66.03515625 C83.17421656 70.87576555 88.82213425 75.70493633 94.5 80.5 C100.77168949 85.7965589 107.00591071 91.13604423 113.23388672 96.48388672 C116.15442271 98.99100982 119.07729428 101.49540697 122 104 C125.51289464 107.01035146 129.02527616 110.02129013 132.53515625 113.03515625 C138.17421656 117.87576555 143.82213425 122.70493633 149.5 127.5 C155.77168949 132.7965589 162.00591071 138.13604423 168.23388672 143.48388672 C171.15442271 145.99100982 174.07729428 148.49540697 177 151 C180.51289464 154.01035146 184.02527616 157.02129013 187.53515625 160.03515625 C193.17421656 164.87576555 198.82213425 169.70493633 204.5 174.5 C210.77168949 179.7965589 217.00591071 185.13604423 223.23388672 190.48388672 C226.73494192 193.48935434 230.23888345 196.49145815 233.74316406 199.49316406 C236.70051252 202.02685208 239.65529679 204.5634265 242.60546875 207.10546875 C247.93835322 211.69606553 253.28185945 216.25761398 258.75 220.6875 C263.12507747 224.23745321 267.30549192 227.95563821 271.46875 231.75 C274.0884481 234.07862053 276.7751531 236.29562947 279.5 238.5 C283.96276213 242.11032442 288.22719533 245.88427929 292.46875 249.75 C295.0884481 252.07862053 297.7751531 254.29562947 300.5 256.5 C304.0947765 259.4081338 307.58260628 262.38541332 311 265.5 C314.31989486 268.52282421 317.69764112 271.42512161 321.1875 274.25 C327.62711993 279.46518515 333.85455403 284.91331752 340.10351562 290.35351562 C343.07855189 292.93637409 346.0694406 295.50056914 349.0625 298.0625 C349.63589111 298.55339111 350.20928223 299.04428223 350.80004883 299.55004883 C351.95530518 300.53885203 353.11065976 301.52754049 354.26611328 302.51611328 C356.59470161 304.50895471 358.92170262 306.50364418 361.24853516 308.49853516 C362.41339056 309.49712183 363.57842879 310.49549528 364.74365234 311.49365234 C367.70088522 314.02712277 370.65547058 316.56357624 373.60546875 319.10546875 C378.93835322 323.69606553 384.28185945 328.25761398 389.75 332.6875 C394.12507747 336.23745321 398.30549192 339.95563821 402.46875 343.75 C405.0884481 346.07862053 407.7751531 348.29562947 410.5 350.5 C414.0947765 353.4081338 417.58260628 356.38541332 421 359.5 C424.31989486 362.52282421 427.69764112 365.42512161 431.1875 368.25 C437.62711993 373.46518515 443.85455403 378.91331752 450.10351562 384.35351562 C453.07855189 386.93637409 456.0694406 389.50056914 459.0625 392.0625 C459.63589111 392.55339111 460.20928223 393.04428223 460.80004883 393.55004883 C461.95530518 394.53885203 463.11065976 395.52754049 464.26611328 396.51611328 C466.59470161 398.50895471 468.92170262 400.50364418 471.24853516 402.49853516 C472.41339056 403.49712183 473.57842879 404.49549528 474.74365234 405.49365234 C477.70088522 408.02712277 480.65547058 410.56357624 483.60546875 413.10546875 C488.93835322 417.69606553 494.28185945 422.25761398 499.75 426.6875 C504.12507747 430.23745321 508.30549192 433.95563821 512.46875 437.75 C515.0884481 440.07862053 517.7751531 442.29562947 520.5 444.5 C524.0947765 447.4081338 527.58260628 450.38541332 531 453.5 C534.31989486 456.52282421 537.69764112 459.42512161 541.1875 462.25 C547.62711993 467.46518515 553.85455403 472.91331752 560.10351562 478.35351562 C563.07855189 480.93637409 566.0694406 483.50056914 569.0625 486.0625 C569.63589111 486.55339111 570.20928223 487.04428223 570.80004883 487.55004883 C571.95530518 488.53885203 573.11065976 489.52754049 574.26611328 490.51611328 C576.59470161 492.50895471 578.92170262 494.50364418 581.24853516 496.49853516 C582.41339056 497.49712183 583.57842879 498.49549528 584.74365234 499.49365234 C587.70088522 502.02712277 590.65547058 504.56357624 593.60546875 507.10546875 C598.93835322 511.69606553 604.28185945 516.25761398 609.75 520.6875 C614.12363873 524.23628582 618.30266846 527.95330327 622.46484375 531.74609375 C625.90505757 534.80465057 629.4729709 537.69053677 633.06640625 540.56640625 C634.03449219 541.36949219 635.00257813 542.17257812 636 543 C636.73137922 543.48143867 637.46275844 543.96287735 638.21630066 544.45890507 C642.06181536 547.27058009 644.59452045 549.46096315 645.83365703 554.16422588 C646.14721444 558.13729454 646.17567621 562.06026439 646.10743046 566.04001617 C646.114092 567.58424659 646.12470445 569.12846411 646.13889894 570.67264366 C646.16650655 574.92359549 646.13796367 579.1726087 646.10039574 583.42341597 C646.06947699 588.04472663 646.09082688 592.66584138 646.10559314 597.28719091 C646.12425983 605.38885339 646.10945906 613.48992118 646.07284927 621.59151459 C646.01856345 633.63818121 646.01582416 645.68447239 646.02372717 657.73123903 C646.03555678 677.99499663 646.0054628 698.25849025 645.95157051 718.52217102 C645.89833823 738.58906865 645.86368127 758.65585637 645.85389519 778.7228241 C645.85327653 779.96998628 645.85265787 781.21714847 645.85202047 782.50210344 C645.84897552 788.8356721 645.84626305 795.16924085 645.84367859 801.5028097 C645.82476908 846.37694799 645.76412372 891.25094919 645.67895508 936.125 C645.65833009 947.00170843 645.6378518 957.87841711 645.61798096 968.75512695 C645.61613214 969.76699185 645.61613214 969.76699185 645.61424598 970.79929847 C645.55714686 1002.15999021 645.52361818 1033.52069426 645.4961678 1064.88142434 C645.49438523 1066.9174423 645.49259249 1068.95346024 645.49079769 1070.98947818 C645.47891963 1084.48230085 645.46744779 1097.97512385 645.45624795 1111.4679471 C645.43342842 1138.95499254 645.40803006 1166.44203544 645.38108826 1193.92907715 C645.37985265 1195.19291886 645.37861704 1196.45676057 645.37734399 1197.75890052 C645.29452188 1282.17266008 645.15191318 1366.58633999 645 1451 C640.97248591 1449.15235372 638.28670318 1446.47259937 635.25 1443.3125 C631.25721453 1439.23244053 627.20906107 1435.34325033 622.859375 1431.640625 C620.10779595 1429.21276113 617.57353926 1426.58250081 615 1423.96875 C613.06108998 1422.06013545 611.06300449 1420.27289448 609 1418.5 C605.48858352 1415.48237647 602.24692598 1412.26640919 599 1408.96875 C597.06108998 1407.06013545 595.06300449 1405.27289448 593 1403.5 C589.48858352 1400.48237647 586.24692598 1397.26640919 583 1393.96875 C581.06108998 1392.06013545 579.06300449 1390.27289448 577 1388.5 C573.48858352 1385.48237647 570.24692598 1382.26640919 567 1378.96875 C565.06108998 1377.06013545 563.06300449 1375.27289448 561 1373.5 C557.48858352 1370.48237647 554.24692598 1367.26640919 551 1363.96875 C549.06108998 1362.06013545 547.06300449 1360.27289448 545 1358.5 C541.48858352 1355.48237647 538.24692598 1352.26640919 535 1348.96875 C533.06108998 1347.06013545 531.06300449 1345.27289448 529 1343.5 C525.48858352 1340.48237647 522.24692598 1337.26640919 519 1333.96875 C517.06108998 1332.06013545 515.06300449 1330.27289448 513 1328.5 C509.48858352 1325.48237647 506.24692598 1322.26640919 503 1318.96875 C501.06108998 1317.06013545 499.06300449 1315.27289448 497 1313.5 C493.48858352 1310.48237647 490.24692598 1307.26640919 487 1303.96875 C485.06108998 1302.06013545 483.06300449 1300.27289448 481 1298.5 C477.48858352 1295.48237647 474.24692598 1292.26640919 471 1288.96875 C469.06108998 1287.06013545 467.06300449 1285.27289448 465 1283.5 C461.48858352 1280.48237647 458.24692598 1277.26640919 455 1273.96875 C453.06108998 1272.06013545 451.06300449 1270.27289448 449 1268.5 C445.48858352 1265.48237647 442.24692598 1262.26640919 439 1258.96875 C437.06108998 1257.06013545 435.06300449 1255.27289448 433 1253.5 C429.48998489 1250.48358077 426.24948724 1247.26904868 423.00390625 1243.97265625 C420.42531388 1241.43427584 417.70207737 1239.09349834 414.95703125 1236.73828125 C412.32904611 1234.40404295 409.88411105 1231.91235704 407.4453125 1229.3828125 C406.02890223 1227.89145515 406.02890223 1227.89145515 404 1227 C404.00433928 1225.86692441 404.00867855 1224.73384882 404.01314932 1223.5664376 C404.20331764 1173.61741745 404.37233616 1123.66838343 404.43382263 1073.71902466 C404.43522848 1072.58426566 404.43522848 1072.58426566 404.43666273 1071.42658224 C404.45690609 1054.98467568 404.4733655 1038.54276737 404.48592833 1022.1008532 C404.49211239 1014.03744967 404.49913239 1005.97404697 404.5065918 997.91064453 C404.50731986 997.10824979 404.50804792 996.30585505 404.50879804 995.47914531 C404.53277778 969.4827792 404.61193006 943.4869378 404.7197714 917.49079565 C404.8303239 890.77072228 404.88506018 864.05109963 404.86981873 837.33078785 C404.86769073 833.55459241 404.86619913 829.77839696 404.86509514 826.00220108 C404.86485818 825.25901004 404.86462122 824.51581901 404.86437708 823.75010703 C404.86220168 811.79851943 404.91866008 799.84789738 404.99718723 787.89659757 C405.07492673 775.8739528 405.09055746 763.85248592 405.04335362 751.82967161 C405.01949471 745.31780179 405.02493799 738.8084087 405.10386848 732.2968483 C405.17558859 726.32978146 405.16836202 720.36811162 405.09934901 714.40106095 C405.08819213 712.24734319 405.105573 710.09324051 405.15496892 707.94006036 C405.60053582 696.77401098 405.60053582 696.77401098 401.34645276 686.79535452 C397.36682357 682.7163132 392.90484367 679.48702271 388.12967073 676.40488924 C384.90674825 674.27880982 381.93816084 671.86156433 378.9375 669.4375 C377.80227029 668.5488757 376.66572107 667.6619322 375.52734375 666.77734375 C371.64382293 663.73516115 367.82152283 660.61947055 364 657.5 C359.03767756 653.45017933 354.0484598 649.44194806 349 645.5 C343.25989332 641.0179989 337.60306754 636.44043443 331.9609375 631.8359375 C327.67548382 628.34469917 323.35670547 624.90181112 319 621.5 C313.25989332 617.0179989 307.60306754 612.44043443 301.9609375 607.8359375 C297.67548382 604.34469917 293.35670547 600.90181112 289 597.5 C283.26359254 593.02088732 277.61017959 588.44655322 271.97192383 583.84472656 C267.57960734 580.26615682 263.15148256 576.73867933 258.6875 573.25 C253.73507401 569.37820356 248.83972588 565.44657928 243.984375 561.453125 C234.74326558 553.85702982 225.47309747 546.30552432 216 539 C207.54549093 532.43748465 199.22018908 525.74032236 190.97338867 518.91845703 C186.05100584 514.85123631 181.06504587 510.88814192 176 507 C167.54434672 500.43901935 159.22013257 493.74027562 150.97338867 486.91845703 C146.05100584 482.85123631 141.06504587 478.88814192 136 475 C127.66115081 468.52965095 119.45002136 461.92691362 111.32055664 455.1953125 C106.3518372 451.08961959 101.3220613 447.07512363 96.23828125 443.11328125 C91.77910696 439.63146023 87.38265769 436.07751928 83 432.5 C78.03767756 428.45017933 73.0484598 424.44194806 68 420.5 C62.25989332 416.0179989 56.60306754 411.44043443 50.9609375 406.8359375 C46.67548382 403.34469917 42.35670547 399.90181112 38 396.5 C32.27099121 392.02666437 26.62439661 387.45879913 20.99389648 382.86230469 C15.79445816 378.62548998 10.54059908 374.46269217 5.25195312 370.33789062 C1.08952873 367.08952873 1.08952873 367.08952873 0 366 C-0.09772587 364.05568714 -0.12371294 362.1077617 -0.12304783 360.16099453 C-0.12503888 358.8840807 -0.12702993 357.60716687 -0.12908131 356.29155868 C-0.12622771 354.85602897 -0.1232821 353.42049945 -0.12025452 351.98497009 C-0.12069009 350.47442992 -0.12156473 348.96388982 -0.12284368 347.45335013 C-0.12509146 343.28262391 -0.12106352 339.11192311 -0.11606562 334.94120014 C-0.11176534 330.45105987 -0.11320724 325.96092116 -0.1139679 321.47077942 C-0.1144934 313.68470352 -0.11134385 305.89863598 -0.10573006 298.11256218 C-0.09761863 286.85507081 -0.0950002 275.59758349 -0.09374207 264.34008951 C-0.09155098 246.07755412 -0.08488938 227.8150232 -0.07543945 209.55249023 C-0.06626679 191.80737327 -0.05918524 174.06225752 -0.05493164 156.31713867 C-0.05466892 155.22416101 -0.05440619 154.13118336 -0.05413551 153.00508516 C-0.05283051 147.52218573 -0.0515668 142.03928628 -0.05032361 136.55638683 C-0.03994924 91.03758813 -0.0223294 45.5187943 0 0 Z " fill="#050505" transform="translate(879,437)"/>
<path d="M0 0 C0.29760904 46.43877584 0.52665232 92.87745068 0.66384928 139.3169923 C0.68010831 144.80060385 0.69693451 150.28421352 0.71411133 155.76782227 C0.71752136 156.85950186 0.7209314 157.95118145 0.72444477 159.07594224 C0.7809995 176.74828653 0.88349132 194.4200806 1.00298635 212.09209857 C1.12459243 230.22768637 1.19677152 248.36298619 1.22315043 266.49896497 C1.24098129 277.6886047 1.29727585 288.87668928 1.40291407 300.06585022 C1.47167774 307.74061539 1.49239182 315.41457764 1.47551791 323.08962844 C1.46719668 327.51726499 1.4798673 331.94218648 1.54967117 336.36933899 C1.61319749 340.42809536 1.61598738 344.48232742 1.57168563 348.54129734 C1.56621622 350.00456289 1.58251371 351.4681169 1.62348137 352.93081907 C1.90236159 363.50809349 1.90236159 363.50809349 -1.24859168 367.63553225 C-4.2929002 370.77545426 -7.69347337 373.34876536 -11.29258505 375.8170444 C-14.05065307 377.72792846 -16.66791242 379.81073854 -19.3125 381.875 C-20.39519507 382.700057 -21.47836955 383.52448626 -22.5625 384.34765625 C-29.16662648 389.40609535 -35.56084826 394.73465992 -42 400 C-50.18316246 406.68288345 -58.38408862 413.33373768 -66.71142578 419.83642578 C-71.18480915 423.33793972 -75.59885003 426.90825692 -80 430.5 C-85.52339685 435.00759973 -91.09184436 439.44842642 -96.7109375 443.8359375 C-101.18436708 447.33776247 -105.59867202 450.90811164 -110 454.5 C-115.52339685 459.00759973 -121.09184436 463.44842642 -126.7109375 467.8359375 C-131.18436708 471.33776247 -135.59867202 474.90811164 -140 478.5 C-145.52339685 483.00759973 -151.09184436 487.44842642 -156.7109375 491.8359375 C-161.18436708 495.33776247 -165.59867202 498.90811164 -170 502.5 C-175.52339685 507.00759973 -181.09184436 511.44842642 -186.7109375 515.8359375 C-191.18436708 519.33776247 -195.59867202 522.90811164 -200 526.5 C-205.52339685 531.00759973 -211.09184436 535.44842642 -216.7109375 539.8359375 C-221.18436708 543.33776247 -225.59867202 546.90811164 -230 550.5 C-235.52339685 555.00759973 -241.09184436 559.44842642 -246.7109375 563.8359375 C-251.18436708 567.33776247 -255.59867202 570.90811164 -260 574.5 C-265.52339685 579.00759973 -271.09184436 583.44842642 -276.7109375 587.8359375 C-281.18436708 591.33776247 -285.59867202 594.90811164 -290 598.5 C-295.52339685 603.00759973 -301.09184436 607.44842642 -306.7109375 611.8359375 C-311.18436708 615.33776247 -315.59867202 618.90811164 -320 622.5 C-325.52339685 627.00759973 -331.09184436 631.44842642 -336.7109375 635.8359375 C-341.18436708 639.33776247 -345.59867202 642.90811164 -350 646.5 C-355.52339685 651.00759973 -361.09184436 655.44842642 -366.7109375 659.8359375 C-371.18437718 663.33777037 -375.59830666 666.90854761 -380 670.5 C-385.24989307 674.77641563 -390.5092953 679.03977966 -395.8125 683.25 C-396.39322266 683.71599609 -396.97394531 684.18199219 -397.57226562 684.66210938 C-400.04929275 686.61828014 -401.97809738 687.99269913 -405 689 C-404.99544336 690.13383503 -404.99088671 691.26767006 -404.98619199 692.43586373 C-404.78613721 742.41235801 -404.60100773 792.38887886 -404.49188232 842.36566162 C-404.49022564 843.12244373 -404.48856895 843.87922585 -404.48686207 844.65894075 C-404.45094606 861.10638121 -404.41770404 877.55382606 -404.38721605 894.00127746 C-404.37224818 902.06725886 -404.35668951 910.13323908 -404.34082031 918.19921875 C-404.3392512 919.00187501 -404.3376821 919.80453127 -404.33606544 920.63151045 C-404.28494124 946.64177414 -404.1948149 972.65172474 -404.08443335 998.66179879 C-403.97119547 1025.39352572 -403.89736398 1052.12507941 -403.87302012 1078.85704213 C-403.86956233 1082.63387966 -403.86565469 1086.41071661 -403.86147308 1090.18755341 C-403.86066401 1090.93087929 -403.85985493 1091.67420517 -403.85902134 1092.44005608 C-403.84484787 1104.39931108 -403.78921163 1116.35803 -403.71801559 1128.3170665 C-403.64730257 1140.34393144 -403.62040024 1152.37026567 -403.63798347 1164.39733115 C-403.64629997 1170.91257966 -403.63382004 1177.42656357 -403.5695343 1183.94156265 C-403.51108366 1189.9087889 -403.50821565 1195.87338901 -403.54921326 1201.84073684 C-403.55427889 1203.99711284 -403.53909261 1206.15365347 -403.50140181 1208.309706 C-403.2087542 1226.08658673 -403.2087542 1226.08658673 -409.18611483 1232.58299325 C-411.66716311 1234.92913058 -414.25752125 1236.9610789 -417 1239 C-418.42628028 1240.23901938 -419.84565062 1241.48617752 -421.25 1242.75 C-421.87390625 1243.28109375 -422.4978125 1243.8121875 -423.140625 1244.359375 C-425.89220405 1246.78723887 -428.42646074 1249.41749919 -431 1252.03125 C-433.56305228 1254.55425459 -436.27345824 1256.87562817 -439 1259.21875 C-441.08337078 1261.0742521 -443.04281207 1263.01223101 -445 1265 C-448.20029522 1268.25029983 -451.54224576 1271.24724245 -455 1274.21875 C-457.08337078 1276.0742521 -459.04281207 1278.01223101 -461 1280 C-464.20029522 1283.25029983 -467.54224576 1286.24724245 -471 1289.21875 C-473.08337078 1291.0742521 -475.04281207 1293.01223101 -477 1295 C-480.20029522 1298.25029983 -483.54224576 1301.24724245 -487 1304.21875 C-489.08337078 1306.0742521 -491.04281207 1308.01223101 -493 1310 C-496.20029522 1313.25029983 -499.54224576 1316.24724245 -503 1319.21875 C-505.08337078 1321.0742521 -507.04281207 1323.01223101 -509 1325 C-512.20029522 1328.25029983 -515.54224576 1331.24724245 -519 1334.21875 C-521.08337078 1336.0742521 -523.04281207 1338.01223101 -525 1340 C-528.20029522 1343.25029983 -531.54224576 1346.24724245 -535 1349.21875 C-537.08337078 1351.0742521 -539.04281207 1353.01223101 -541 1355 C-544.20029522 1358.25029983 -547.54224576 1361.24724245 -551 1364.21875 C-553.08337078 1366.0742521 -555.04281207 1368.01223101 -557 1370 C-560.20029522 1373.25029983 -563.54224576 1376.24724245 -567 1379.21875 C-569.08337078 1381.0742521 -571.04281207 1383.01223101 -573 1385 C-576.20029522 1388.25029983 -579.54224576 1391.24724245 -583 1394.21875 C-585.08337078 1396.0742521 -587.04281207 1398.01223101 -589 1400 C-592.20029522 1403.25029983 -595.54224576 1406.24724245 -599 1409.21875 C-601.08337078 1411.0742521 -603.04281207 1413.01223101 -605 1415 C-608.20029522 1418.25029983 -611.54224576 1421.24724245 -615 1424.21875 C-617.08337078 1426.0742521 -619.04281207 1428.01223101 -621 1430 C-624.19465732 1433.24457384 -627.52732625 1436.23895063 -630.984375 1439.19921875 C-633.84962039 1441.75906008 -636.49398058 1444.51742999 -639.140625 1447.30078125 C-641.01317619 1449.01204127 -642.72475486 1449.92046754 -645 1451 C-645.20563582 1365.3521055 -645.39643482 1279.70418119 -645.50811768 1194.05610657 C-645.50977436 1192.78886141 -645.51143105 1191.52161625 -645.51313793 1190.21596972 C-645.54817667 1163.34721829 -645.58081104 1136.47846436 -645.61055614 1109.60970657 C-645.62550082 1096.11255245 -645.6409205 1082.6153989 -645.6567893 1069.11824583 C-645.65918028 1067.08225677 -645.6615577 1065.04626768 -645.66393456 1063.0102786 C-645.70065248 1031.66051753 -645.74755457 1000.31081237 -645.82397461 968.96112061 C-645.82561739 968.28712247 -645.82726018 967.61312434 -645.82895275 966.91870203 C-645.85550106 956.05192112 -645.88290443 945.18514236 -645.91042129 934.31836387 C-646.02548892 888.86912464 -646.10224854 843.41996928 -646.12697988 797.97057454 C-646.13043783 791.6495347 -646.13434548 785.32849522 -646.13852692 779.00745583 C-646.13933599 777.76336205 -646.14014507 776.51926827 -646.14097866 775.23747468 C-646.15516951 755.19601446 -646.21085344 735.15487313 -646.28198441 715.11354305 C-646.35258029 694.97419729 -646.37962874 674.83516825 -646.36201653 654.69570305 C-646.3528766 642.72436146 -646.37733424 630.75417736 -646.44957052 618.78304439 C-646.4945186 610.78931207 -646.49600149 602.796339 -646.46198176 594.80255458 C-646.44383611 590.24524741 -646.44473997 585.69013098 -646.49859819 581.13305744 C-646.54725739 576.98438757 -646.54037118 572.83961105 -646.48967971 568.69099936 C-646.48112751 567.20197898 -646.49259025 565.71267035 -646.52682294 564.22401896 C-646.65996011 558.04103023 -646.69593802 552.5485536 -642.42769423 547.76855627 C-639.48671155 544.8893546 -636.30326072 542.45033913 -633 540 C-631.11980332 538.46467543 -629.24392741 536.92402274 -627.375 535.375 C-626.47523438 534.65054688 -625.57546875 533.92609375 -624.6484375 533.1796875 C-622.02724881 531.02242601 -619.50845719 528.78689 -617 526.5 C-613.68010514 523.47717579 -610.30235888 520.57487839 -606.8125 517.75 C-600.37288007 512.53481485 -594.14544597 507.08668248 -587.89648438 501.64648438 C-583.20215479 497.57097475 -578.47101259 493.53816153 -573.74707031 489.49707031 C-571.96164376 487.96713241 -570.17963855 486.43329199 -568.3984375 484.8984375 C-563.06449936 480.30622865 -557.71957787 475.74355043 -552.25 471.3125 C-547.87492253 467.76254679 -543.69450808 464.04436179 -539.53125 460.25 C-536.02200514 457.13067124 -532.36837877 454.20250867 -528.71875 451.25 C-526.07852271 449.06498431 -523.5327028 446.80828609 -521 444.5 C-517.68010514 441.47717579 -514.30235888 438.57487839 -510.8125 435.75 C-504.37288007 430.53481485 -498.14544597 425.08668248 -491.89648438 419.64648438 C-488.92144811 417.06362591 -485.9305594 414.49943086 -482.9375 411.9375 C-482.07741333 411.20116333 -482.07741333 411.20116333 -481.19995117 410.44995117 C-480.04469482 409.46114797 -478.88934024 408.47245951 -477.73388672 407.48388672 C-475.40547278 405.49119453 -473.07865711 403.49664138 -470.75195312 401.50195312 C-469.0027877 400.0023899 -467.25334729 398.50314791 -465.50390625 397.00390625 C-463.15658474 394.99200998 -460.81033583 392.97887242 -458.46484375 390.96484375 C-452.29340193 385.6672344 -446.10598459 380.38984001 -439.89208984 375.14208984 C-434.15831236 370.29603358 -428.46176847 365.40686219 -422.76611328 360.51611328 C-419.26349055 357.50930001 -415.75766627 354.50622029 -412.25244141 351.50244141 C-409.32218196 348.99114114 -406.39270413 346.47894081 -403.46484375 343.96484375 C-397.29340193 338.6672344 -391.10598459 333.38984001 -384.89208984 328.14208984 C-379.15831236 323.29603358 -373.46176847 318.40686219 -367.76611328 313.51611328 C-364.84557725 311.00899015 -361.92267689 308.50462672 -359 306 C-357.83332184 305.00001341 -356.66665518 304.0000134 -355.5 303 C-353.16666667 301 -350.83333333 299 -348.5 297 C-347.9222583 296.5047583 -347.3445166 296.0095166 -346.74926758 295.49926758 C-345.58518023 294.50154805 -344.42095544 293.50398886 -343.2565918 292.5065918 C-340.29930113 289.97301257 -337.34461631 287.43649863 -334.39453125 284.89453125 C-329.06164678 280.30393447 -323.71814055 275.74238602 -318.25 271.3125 C-313.87492253 267.76254679 -309.69450808 264.04436179 -305.53125 260.25 C-302.02200514 257.13067124 -298.36837877 254.20250867 -294.71875 251.25 C-292.07852271 249.06498431 -289.5327028 246.80828609 -287 244.5 C-283.68010514 241.47717579 -280.30235888 238.57487839 -276.8125 235.75 C-270.37288007 230.53481485 -264.14544597 225.08668248 -257.89648438 219.64648438 C-254.92144811 217.06362591 -251.9305594 214.49943086 -248.9375 211.9375 C-248.36410889 211.44660889 -247.79071777 210.95571777 -247.19995117 210.44995117 C-246.04469482 209.46114797 -244.88934024 208.47245951 -243.73388672 207.48388672 C-241.40529839 205.49104529 -239.07829738 203.49635582 -236.75146484 201.50146484 C-235.58660944 200.50287817 -234.42157121 199.50450472 -233.25634766 198.50634766 C-230.29911478 195.97287723 -227.34452942 193.43642376 -224.39453125 190.89453125 C-219.06164678 186.30393447 -213.71814055 181.74238602 -208.25 177.3125 C-203.87492253 173.76254679 -199.69450808 170.04436179 -195.53125 166.25 C-192.02200514 163.13067124 -188.36837877 160.20250867 -184.71875 157.25 C-182.07852271 155.06498431 -179.5327028 152.80828609 -177 150.5 C-173.68010514 147.47717579 -170.30235888 144.57487839 -166.8125 141.75 C-160.37288007 136.53481485 -154.14544597 131.08668248 -147.89648438 125.64648438 C-144.92144811 123.06362591 -141.9305594 120.49943086 -138.9375 117.9375 C-138.36410889 117.44660889 -137.79071777 116.95571777 -137.19995117 116.44995117 C-136.04469482 115.46114797 -134.88934024 114.47245951 -133.73388672 113.48388672 C-131.40547278 111.49119453 -129.07865711 109.49664138 -126.75195312 107.50195312 C-125.0027877 106.0023899 -123.25334729 104.50314791 -121.50390625 103.00390625 C-119.15658474 100.99200998 -116.81033583 98.97887242 -114.46484375 96.96484375 C-108.29340193 91.6672344 -102.10598459 86.38984001 -95.89208984 81.14208984 C-90.15831236 76.29603358 -84.46176847 71.40686219 -78.76611328 66.51611328 C-75.26349055 63.50930001 -71.75766627 60.50622029 -68.25244141 57.50244141 C-65.32218196 54.99114114 -62.39270413 52.47894081 -59.46484375 49.96484375 C-53.29340193 44.6672344 -47.10598459 39.38984001 -40.89208984 34.14208984 C-35.16862677 29.30475108 -29.48227588 24.42444112 -23.796875 19.54248047 C-20.72031841 16.90149072 -17.64126759 14.26341153 -14.5625 11.625 C-13.45962411 10.67970069 -12.35675915 9.73438863 -11.25390625 8.7890625 C-10.4652417 8.11472168 -10.4652417 8.11472168 -9.66064453 7.42675781 C-8.45937009 6.39467198 -7.26304359 5.3568177 -6.06982422 4.31542969 C-5.43705566 3.76532227 -4.80428711 3.21521484 -4.15234375 2.6484375 C-3.57347412 2.14231934 -2.99460449 1.63620117 -2.39819336 1.11474609 C-1 0 -1 0 0 0 Z " fill="#050505" transform="translate(2700,437)"/>
<path d="M0 0 C3.26714275 2.98647725 5.29550507 5.97106163 7.3984375 9.85546875 C7.70968063 10.42522934 8.02092377 10.99498993 8.34159851 11.58201599 C9.35895982 13.44719675 10.36680702 15.31735025 11.375 17.1875 C12.45212608 19.16634357 13.53177113 21.14380031 14.61140442 23.12127686 C15.3441527 24.46396668 16.07607117 25.80710968 16.80717468 27.1506958 C20.17475032 33.33748029 23.60983037 39.48532381 27.0625 45.625 C33.78063632 57.59433479 40.44873113 69.59110094 47.10888672 81.59277344 C50.23745052 87.22951968 53.36886077 92.8646841 56.5 98.5 C57.75001382 100.74999232 59.00001382 102.99999232 60.25 105.25 C61.178125 106.920625 61.178125 106.920625 62.125 108.625 C97.75 172.75 97.75 172.75 99.62573242 176.12646484 C100.87312512 178.37167421 102.12068316 180.61679172 103.3684082 182.86181641 C106.53467661 188.55936324 109.69786733 194.25858225 112.85546875 199.9609375 C113.80873047 201.68086914 113.80873047 201.68086914 114.78125 203.43554688 C116.03878041 205.70451311 117.2953129 207.97403276 118.55078125 210.24414062 C121.52898104 215.61440514 124.54185492 220.95835074 127.64453125 226.2578125 C128.49494995 227.71598389 128.49494995 227.71598389 129.36254883 229.20361328 C130.42756484 231.02241355 131.50118632 232.83621134 132.5847168 234.64404297 C133.05176025 235.44213379 133.51880371 236.24022461 134 237.0625 C134.4125 237.75472656 134.825 238.44695312 135.25 239.16015625 C136 241 136 241 135 244 C133.5390625 245.47265625 133.5390625 245.47265625 131.625 247.0625 C128.1862551 249.97742175 124.82596216 252.95660566 121.5 256 C117.71065874 259.45575413 113.88916302 262.8652289 110.01953125 266.23046875 C105.97334911 269.77576954 101.99256813 273.39458999 98 277 C92.71740942 281.77033937 87.42065865 286.51894407 82.0546875 291.1953125 C78.00030997 294.75638173 74.0048707 298.3834804 70 302 C64.71740942 306.77033937 59.42065865 311.51894407 54.0546875 316.1953125 C50.00030997 319.75638173 46.0048707 323.3834804 42 327 C36.71740942 331.77033937 31.42065865 336.51894407 26.0546875 341.1953125 C22.00030997 344.75638173 18.0048707 348.3834804 14 352 C8.71740942 356.77033937 3.42065865 361.51894407 -1.9453125 366.1953125 C-5.99969003 369.75638173 -9.9951293 373.3834804 -14 377 C-19.28259058 381.77033937 -24.57934135 386.51894407 -29.9453125 391.1953125 C-33.99969003 394.75638173 -37.9951293 398.3834804 -42 402 C-47.28259058 406.77033937 -52.57934135 411.51894407 -57.9453125 416.1953125 C-61.99969003 419.75638173 -65.9951293 423.3834804 -70 427 C-75.28259058 431.77033937 -80.57934135 436.51894407 -85.9453125 441.1953125 C-89.99969003 444.75638173 -93.9951293 448.3834804 -98 452 C-103.28259058 456.77033937 -108.57934135 461.51894407 -113.9453125 466.1953125 C-117.99969003 469.75638173 -121.9951293 473.3834804 -126 477 C-131.28259058 481.77033937 -136.57934135 486.51894407 -141.9453125 491.1953125 C-145.99969003 494.75638173 -149.9951293 498.3834804 -154 502 C-159.28259058 506.77033937 -164.57934135 511.51894407 -169.9453125 516.1953125 C-173.99969003 519.75638173 -177.9951293 523.3834804 -182 527 C-191.48872041 535.56860207 -191.48872041 535.56860207 -195.9375 539.4375 C-199.16559512 542.24822525 -202.33738443 545.115799 -205.5 548 C-209.28662998 551.45328153 -213.1047632 554.86099051 -216.97265625 558.22265625 C-219.33489173 560.29359487 -221.66795853 562.39512848 -224 564.5 C-226.95869751 567.17048344 -229.92926472 569.82298058 -232.9375 572.4375 C-237.13303221 576.09057956 -241.23373553 579.84505549 -245.34375 583.59375 C-248.16722669 586.15148771 -251.03056002 588.65769969 -253.90625 591.15625 C-256.46419027 593.40876457 -258.9817898 595.70317092 -261.5 598 C-265.28662998 601.45328153 -269.1047632 604.86099051 -272.97265625 608.22265625 C-275.33489173 610.29359487 -277.66795853 612.39512848 -280 614.5 C-282.95869751 617.17048344 -285.92926472 619.82298058 -288.9375 622.4375 C-292.16559512 625.24822525 -295.33738443 628.115799 -298.5 631 C-302.28934126 634.45575413 -306.11083698 637.8652289 -309.98046875 641.23046875 C-314.02665089 644.77576954 -318.00743187 648.39458999 -322 652 C-327.28259058 656.77033937 -332.57934135 661.51894407 -337.9453125 666.1953125 C-341.99969003 669.75638173 -345.9951293 673.3834804 -350 677 C-355.28259058 681.77033937 -360.57934135 686.51894407 -365.9453125 691.1953125 C-369.99969003 694.75638173 -373.9951293 698.3834804 -378 702 C-383.28259058 706.77033937 -388.57934135 711.51894407 -393.9453125 716.1953125 C-397.99969003 719.75638173 -401.9951293 723.3834804 -406 727 C-415.48872041 735.56860207 -415.48872041 735.56860207 -419.9375 739.4375 C-423.16559512 742.24822525 -426.33738443 745.115799 -429.5 748 C-433.28934126 751.45575413 -437.11083698 754.8652289 -440.98046875 758.23046875 C-445.02665089 761.77576954 -449.00743187 765.39458999 -453 769 C-458.27985576 773.76786975 -463.57291806 778.51512218 -468.9375 783.1875 C-472.1751333 786.0326929 -475.3668629 788.92853836 -478.56640625 791.81640625 C-480.67511146 793.70848685 -482.79919801 795.57905758 -484.9375 797.4375 C-488.16559512 800.24822525 -491.33738443 803.115799 -494.5 806 C-497.85921918 809.05979017 -501.2227952 812.11301224 -504.625 815.125 C-505.25664062 815.68445313 -505.88828125 816.24390625 -506.5390625 816.8203125 C-508 818 -508 818 -509 818 C-509.36650233 773.54035215 -509.64829544 729.08086468 -509.81704527 684.62000307 C-509.83705574 679.36686481 -509.85776498 674.11372953 -509.87890625 668.8605957 C-509.88310322 667.81482457 -509.88730018 666.76905345 -509.89162433 665.69159228 C-509.96117982 648.7751293 -510.08729476 631.85953938 -510.23444474 614.94359373 C-510.38425598 597.57641521 -510.4729792 580.20969281 -510.50541592 562.84189469 C-510.52733297 552.13093625 -510.59645539 541.42244564 -510.72666347 530.71224726 C-510.81147291 523.3602009 -510.83675109 516.00942353 -510.81602204 508.65692394 C-510.80580618 504.4185428 -510.82105369 500.18446079 -510.9072876 495.94685173 C-511.42392115 469.26376685 -511.42392115 469.26376685 -505.4982605 461.74534798 C-502.27622165 458.41043182 -498.79390623 455.72584886 -494.88969231 453.23830712 C-492.2774963 451.52654648 -490.06984247 449.46134889 -487.8125 447.3125 C-486.65814453 446.28189453 -486.65814453 446.28189453 -485.48046875 445.23046875 C-481.94109824 442.0478222 -478.45030143 438.81357073 -474.95629883 435.58129883 C-471.31300679 432.21116033 -467.66095985 428.8509348 -464 425.5 C-459.82400369 421.67671073 -455.65847196 417.84234165 -451.5 414 C-445.84114233 408.77184474 -440.16617151 403.56155894 -434.48388672 398.35888672 C-431.98835593 396.07357504 -429.49425473 393.7867042 -427 391.5 C-426.00000675 390.58332596 -425.00000676 389.6666593 -424 388.75 C-423.2575 388.069375 -423.2575 388.069375 -422.5 387.375 C-406 372.25 -406 372.25 -404.50024414 370.87524414 C-403.49940332 369.95779315 -402.49858955 369.04031264 -401.49780273 368.12280273 C-399.01088739 365.84289449 -396.52351685 363.56348707 -394.03515625 361.28515625 C-388.84702953 356.53392441 -383.66726439 351.77391926 -378.5 347 C-372.84111032 341.77187921 -367.16617168 336.56155911 -361.48388672 331.35888672 C-358.98835593 329.07357504 -356.49425473 326.7867042 -354 324.5 C-353.00000675 323.58332596 -352.00000676 322.6666593 -351 321.75 C-350.505 321.29625 -350.01 320.8425 -349.5 320.375 C-345 316.25 -345 316.25 -343.50024414 314.87524414 C-342.49940332 313.95779315 -341.49858955 313.04031264 -340.49780273 312.12280273 C-338.01088739 309.84289449 -335.52351685 307.56348707 -333.03515625 305.28515625 C-327.84702953 300.53392441 -322.66726439 295.77391926 -317.5 291 C-311.84111032 285.77187921 -306.16617168 280.56155911 -300.48388672 275.35888672 C-297.98835593 273.07357504 -295.49425473 270.7867042 -293 268.5 C-292.00000675 267.58332596 -291.00000676 266.6666593 -290 265.75 C-289.505 265.29625 -289.01 264.8425 -288.5 264.375 C-272 249.25 -272 249.25 -270.50024414 247.87524414 C-269.49940332 246.95779315 -268.49858955 246.04031264 -267.49780273 245.12280273 C-265.01088739 242.84289449 -262.52351685 240.56348707 -260.03515625 238.28515625 C-254.84702953 233.53392441 -249.66726439 228.77391926 -244.5 224 C-238.84111032 218.77187921 -233.16617168 213.56155911 -227.48388672 208.35888672 C-224.98835593 206.07357504 -222.49425473 203.7867042 -220 201.5 C-219.00000675 200.58332596 -218.00000676 199.6666593 -217 198.75 C-216.505 198.29625 -216.01 197.8425 -215.5 197.375 C-199 182.25 -199 182.25 -197.50024414 180.87524414 C-196.49940332 179.95779315 -195.49858955 179.04031264 -194.49780273 178.12280273 C-192.01088739 175.84289449 -189.52351685 173.56348707 -187.03515625 171.28515625 C-181.84702953 166.53392441 -176.66726439 161.77391926 -171.5 157 C-165.84111032 151.77187921 -160.16617168 146.56155911 -154.48388672 141.35888672 C-151.98835593 139.07357504 -149.49425473 136.7867042 -147 134.5 C-146.00000675 133.58332596 -145.00000676 132.6666593 -144 131.75 C-143.505 131.29625 -143.01 130.8425 -142.5 130.375 C-126 115.25 -126 115.25 -124.50024414 113.87524414 C-123.49940332 112.95779315 -122.49858955 112.04031264 -121.49780273 111.12280273 C-119.01088739 108.84289449 -116.52351685 106.56348707 -114.03515625 104.28515625 C-108.84702953 99.53392441 -103.66726439 94.77391926 -98.5 90 C-92.84111032 84.77187921 -87.16617168 79.56155911 -81.48388672 74.35888672 C-78.98835593 72.07357504 -76.49425473 69.7867042 -74 67.5 C-73.00000675 66.58332596 -72.00000676 65.6666593 -71 64.75 C-70.2575 64.069375 -70.2575 64.069375 -69.5 63.375 C-65 59.25 -65 59.25 -63.50024414 57.87524414 C-62.49940332 56.95779315 -61.49858955 56.04031264 -60.49780273 55.12280273 C-58.01088739 52.84289449 -55.52351685 50.56348707 -53.03515625 48.28515625 C-47.84702953 43.53392441 -42.66726439 38.77391926 -37.5 34 C-32.33948943 29.23232044 -27.16698021 24.47802341 -21.984375 19.734375 C-19.92886855 17.85264981 -17.87728282 15.96676127 -15.828125 14.078125 C-10.62951899 9.29088485 -5.4100699 4.54937696 0 0 Z " fill="#050505" transform="translate(2564,1)"/>
<path d="M0 0 C4.03669509 1.63990738 6.89052731 4.48389525 10 7.4375 C11.16513123 8.528895 12.330501 9.6200354 13.49609375 10.7109375 C14.37563721 11.53803223 14.37563721 11.53803223 15.27294922 12.38183594 C17.8501674 14.79656623 20.45532365 17.1802142 23.0625 19.5625 C24.05346649 20.46996356 25.0443519 21.37751567 26.03515625 22.28515625 C26.76822998 22.95635498 26.76822998 22.95635498 27.51611328 23.64111328 C30.01164407 25.92642496 32.50574527 28.2132958 35 30.5 C35.99999325 31.41667404 36.99999324 32.3333407 38 33.25 C44 38.75 50 44.25 56 49.75 C56.49491943 50.20366943 56.98983887 50.65733887 57.49975586 51.12475586 C58.50059668 52.04220685 59.50141045 52.95968736 60.50219727 53.87719727 C62.98911261 56.15710551 65.47648315 58.43651293 67.96484375 60.71484375 C73.70255956 65.96938349 79.42745017 71.23746288 85.14208984 76.51708984 C90.25440615 81.23861697 95.38347717 85.9416967 100.51611328 90.64111328 C103.01164407 92.92642496 105.50574527 95.2132958 108 97.5 C108.99999325 98.41667404 109.99999324 99.3333407 111 100.25 C117 105.75 123 111.25 129 116.75 C129.74237915 117.43050415 129.74237915 117.43050415 130.49975586 118.12475586 C131.50059668 119.04220685 132.50141045 119.95968736 133.50219727 120.87719727 C135.98911261 123.15710551 138.47648315 125.43651293 140.96484375 127.71484375 C146.70255956 132.96938349 152.42745017 138.23746288 158.14208984 143.51708984 C163.25440615 148.23861697 168.38347717 152.9416967 173.51611328 157.64111328 C176.01164407 159.92642496 178.50574527 162.2132958 181 164.5 C181.99999325 165.41667404 182.99999324 166.3333407 184 167.25 C190 172.75 196 178.25 202 183.75 C202.74237915 184.43050415 202.74237915 184.43050415 203.49975586 185.12475586 C204.50059668 186.04220685 205.50141045 186.95968736 206.50219727 187.87719727 C208.98911261 190.15710551 211.47648315 192.43651293 213.96484375 194.71484375 C219.70255956 199.96938349 225.42745017 205.23746288 231.14208984 210.51708984 C236.25440615 215.23861697 241.38347717 219.9416967 246.51611328 224.64111328 C249.01164407 226.92642496 251.50574527 229.2132958 254 231.5 C254.99999325 232.41667404 255.99999324 233.3333407 257 234.25 C259 236.08333333 261 237.91666667 263 239.75 C263.74237915 240.43050415 263.74237915 240.43050415 264.49975586 241.12475586 C265.50059668 242.04220685 266.50141045 242.95968736 267.50219727 243.87719727 C269.98911261 246.15710551 272.47648315 248.43651293 274.96484375 250.71484375 C280.70255956 255.96938349 286.42745017 261.23746288 292.14208984 266.51708984 C297.25440615 271.23861697 302.38347717 275.9416967 307.51611328 280.64111328 C310.01164407 282.92642496 312.50574527 285.2132958 315 287.5 C315.99999325 288.41667404 316.99999324 289.3333407 318 290.25 C324 295.75 330 301.25 336 306.75 C336.74237915 307.43050415 336.74237915 307.43050415 337.49975586 308.12475586 C338.50059668 309.04220685 339.50141045 309.95968736 340.50219727 310.87719727 C342.98911261 313.15710551 345.47648315 315.43651293 347.96484375 317.71484375 C353.70255956 322.96938349 359.42745017 328.23746288 365.14208984 333.51708984 C370.25440615 338.23861697 375.38347717 342.9416967 380.51611328 347.64111328 C383.01164407 349.92642496 385.50574527 352.2132958 388 354.5 C388.99999325 355.41667404 389.99999324 356.3333407 391 357.25 C397 362.75 403 368.25 409 373.75 C409.74237915 374.43050415 409.74237915 374.43050415 410.49975586 375.12475586 C411.50059668 376.04220685 412.50141045 376.95968736 413.50219727 377.87719727 C415.98911261 380.15710551 418.47648315 382.43651293 420.96484375 384.71484375 C426.70255956 389.96938349 432.42745017 395.23746288 438.14208984 400.51708984 C443.25440615 405.23861697 448.38347717 409.9416967 453.51611328 414.64111328 C456.01164407 416.92642496 458.50574527 419.2132958 461 421.5 C461.99999325 422.41667404 462.99999324 423.3333407 464 424.25 C482 440.75 482 440.75 483.5012207 442.1262207 C484.49701647 443.03896591 485.49294656 443.95156459 486.48901367 444.86401367 C489.05448327 447.21446928 491.61726922 449.56775256 494.17578125 451.92578125 C494.70107422 452.40917969 495.22636719 452.89257812 495.76757812 453.390625 C497.21686375 454.7244808 498.66510942 456.05946629 500.11328125 457.39453125 C502.70219152 459.89831229 502.70219152 459.89831229 504.78356224 461.07310593 C508.09418604 463.24843394 509.75657155 464.91931641 510.64265144 468.85300612 C510.88562218 472.59392681 510.90007883 476.30186106 510.84178162 480.04684448 C510.84483515 481.49983709 510.85096608 482.95282594 510.85990578 484.40579426 C510.87555301 488.3946853 510.84756897 492.38225984 510.81245935 496.37098312 C510.78222983 500.67357566 510.7924597 504.97609396 510.79777527 509.27876282 C510.80144577 516.73207058 510.77948366 524.1849494 510.7401104 531.63814926 C510.68322073 542.41414832 510.66499029 553.18993997 510.65619446 563.96607293 C510.64087405 581.44950475 510.59428955 598.93270794 510.52807617 616.41601562 C510.463823 633.39940243 510.41427405 650.38272713 510.38452148 667.36621094 C510.38176289 668.9364996 510.38176289 668.9364996 510.37894856 670.53851126 C510.3698133 675.79029607 510.36096734 681.04208133 510.35226524 686.29386687 C510.27969816 729.86273627 510.15640609 773.43135634 510 817 C508.71092366 816.03959683 507.42271939 815.07802305 506.1348877 814.11595154 C505.05869549 813.31292429 505.05869549 813.31292429 503.96076202 812.49367428 C501.94187602 810.95572217 500.05569464 809.34866681 498.21875 807.59765625 C497.60870117 807.02112305 496.99865234 806.44458984 496.37011719 805.85058594 C495.75297852 805.26051758 495.13583984 804.67044922 494.5 804.0625 C493.18313812 802.81811405 491.86543952 801.57461292 490.546875 800.33203125 C489.92876953 799.7488916 489.31066406 799.16575195 488.67382812 798.56494141 C486.15631798 796.21120161 483.56459703 793.95126179 480.953125 791.703125 C478.43387724 789.50634095 475.96897004 787.25310381 473.5 785 C469.71065874 781.54424587 465.88916302 778.1347711 462.01953125 774.76953125 C457.10263444 770.46130252 452.27360968 766.05313844 447.421875 761.671875 C443.63525041 758.25694362 439.84416383 754.85013474 436 751.5 C430.41020011 746.62856797 424.92465102 741.6410485 419.421875 736.671875 C415.63525041 733.25694362 411.84416383 729.85013474 408 726.5 C402.41020011 721.62856797 396.92465102 716.6410485 391.421875 711.671875 C387.63525041 708.25694362 383.84416383 704.85013474 380 701.5 C374.41020011 696.62856797 368.92465102 691.6410485 363.421875 686.671875 C359.63525041 683.25694362 355.84416383 679.85013474 352 676.5 C346.41020011 671.62856797 340.92465102 666.6410485 335.421875 661.671875 C331.63525041 658.25694362 327.84416383 654.85013474 324 651.5 C318.41020011 646.62856797 312.92465102 641.6410485 307.421875 636.671875 C303.63525041 633.25694362 299.84416383 629.85013474 296 626.5 C290.41020011 621.62856797 284.92465102 616.6410485 279.421875 611.671875 C275.6569915 608.27655062 271.88806449 604.88941658 268.0625 601.5625 C263.86835635 597.91062947 259.76905708 594.15733816 255.66015625 590.41015625 C252.80972966 587.82761116 249.92174108 585.29344897 247.01953125 582.76953125 C242.10263444 578.46130252 237.27360968 574.05313844 232.421875 569.671875 C228.63525041 566.25694362 224.84416383 562.85013474 221 559.5 C215.41020011 554.62856797 209.92465102 549.6410485 204.421875 544.671875 C200.63525041 541.25694362 196.84416383 537.85013474 193 534.5 C187.41020011 529.62856797 181.92465102 524.6410485 176.421875 519.671875 C172.63525041 516.25694362 168.84416383 512.85013474 165 509.5 C159.41020011 504.62856797 153.92465102 499.6410485 148.421875 494.671875 C144.63525041 491.25694362 140.84416383 487.85013474 137 484.5 C131.41020011 479.62856797 125.92465102 474.6410485 120.421875 469.671875 C116.63525041 466.25694362 112.84416383 462.85013474 109 459.5 C103.41020011 454.62856797 97.92465102 449.6410485 92.421875 444.671875 C88.63525041 441.25694362 84.84416383 437.85013474 81 434.5 C75.41020011 429.62856797 69.92465102 424.6410485 64.421875 419.671875 C60.63525041 416.25694362 56.84416383 412.85013474 53 409.5 C47.41020011 404.62856797 41.92465102 399.6410485 36.421875 394.671875 C32.63525041 391.25694362 28.84416383 387.85013474 25 384.5 C19.41020011 379.62856797 13.92465102 374.6410485 8.421875 369.671875 C4.63525041 366.25694362 0.84416383 362.85013474 -3 359.5 C-8.58979989 354.62856797 -14.07534898 349.6410485 -19.578125 344.671875 C-23.36474959 341.25694362 -27.15583617 337.85013474 -31 334.5 C-36.58979989 329.62856797 -42.07534898 324.6410485 -47.578125 319.671875 C-51.36474959 316.25694362 -55.15583617 312.85013474 -59 309.5 C-64.58979989 304.62856797 -70.07534898 299.6410485 -75.578125 294.671875 C-79.36474959 291.25694362 -83.15583617 287.85013474 -87 284.5 C-92.58979989 279.62856797 -98.07534898 274.6410485 -103.578125 269.671875 C-107.99711954 265.6866468 -112.43683013 261.73042571 -116.92578125 257.82421875 C-120.18551949 254.95736798 -123.39410784 252.03411516 -126.60546875 249.11328125 C-129.00988609 246.99127508 -131.48011097 244.98279012 -134 243 C-132.38867133 237.10797288 -129.41272827 232.18144509 -126.375 226.9375 C-125.1913062 224.86929143 -124.00908272 222.80024085 -122.828125 220.73046875 C-122.20357422 219.63653809 -121.57902344 218.54260742 -120.93554688 217.41552734 C-117.6144926 211.55508973 -114.37084358 205.65227761 -111.125 199.75 C-109.76854164 197.28628622 -108.41158196 194.82284862 -107.0546875 192.359375 C-106.55009506 191.44304039 -106.55009506 191.44304039 -106.03530884 190.50819397 C-98.07592766 176.05662673 -90.10459447 161.61239166 -81.875 147.3125 C-77.07725456 138.97480294 -72.47693339 130.54092019 -67.91870117 122.0703125 C-64.25254412 115.27222694 -60.50472387 108.52682367 -56.6875 101.8125 C-51.76893481 93.15995337 -46.92462461 84.46887624 -42.125 75.75 C-41.78867554 75.13913544 -41.45235107 74.52827087 -41.10583496 73.89889526 C-40.76894653 73.28700348 -40.43205811 72.67511169 -40.08496094 72.04467773 C-39.40430907 70.80842428 -38.72364501 69.57217753 -38.04296875 68.3359375 C-37.70600983 67.72389969 -37.3690509 67.11186188 -37.0218811 66.48127747 C-31.67938105 56.78164615 -26.28986667 47.10805448 -20.90722656 37.43066406 C-18.89227515 33.80622764 -16.8794503 30.18061697 -14.8671875 26.5546875 C-13.84524809 24.71363058 -12.82327733 22.87259107 -11.80130005 21.03155518 C-10.84114904 19.30161797 -9.88138401 17.57146656 -8.92163086 15.84130859 C-5.97941261 10.54216293 -3.02414693 5.25286068 0 0 Z " fill="#050505" transform="translate(1013,1)"/>
<path d="M0 0 C155.43 0 310.86 0 471 0 C464.32116788 8.90510949 464.32116788 8.90510949 460.6875 12.8125 C457.52623398 16.26980431 454.50293164 19.79053355 451.5625 23.4375 C447.70174863 28.211403 443.62562925 32.73388428 439.46875 37.25 C437.05621896 39.93737634 434.7674379 42.68965444 432.5 45.5 C431.78464773 46.34530116 431.06929546 47.19060232 430.33226585 48.06151867 C427.96310698 50.89131025 427.96310698 50.89131025 426.35531044 53.89945698 C423.38307544 58.40619565 420.68415115 61.35796904 415.39875746 62.62219977 C407.68436605 63.58623553 399.91159497 63.40671075 392.15279078 63.27672184 C388.57693652 63.22897638 385.001285 63.24531048 381.42520142 63.25364685 C375.23809641 63.25939991 369.05227267 63.22504897 362.86548996 63.16303062 C353.92080371 63.07342478 344.97673357 63.0449641 336.03164716 63.03116272 C321.51732939 63.00711983 307.00369374 62.93400419 292.48974609 62.82983398 C278.39537964 62.72878075 264.30119881 62.65095977 250.20654297 62.60424805 C249.33696749 62.60135809 248.46739202 62.59846813 247.57146578 62.5954906 C243.20882448 62.58113462 238.84618187 62.56723397 234.48353839 62.55355966 C198.32175296 62.43962531 162.16122998 62.23689578 126 62 C126 100.61 126 139.22 126 179 C230.61 179 335.22 179 443 179 C443 199.46 443 219.92 443 241 C338.39 241 233.78 241 126 241 C126 279.61 126 318.22 126 358 C139.15218384 357.91359253 139.15218384 357.91359253 152.57006836 357.82543945 C180.63172526 357.64885217 208.69338439 357.52651726 236.75545269 357.43828138 C241.11504604 357.42452377 245.47463769 357.41028621 249.83422852 357.39575195 C250.70213662 357.39286654 251.57004473 357.38998112 252.46425308 357.38700827 C266.51343142 357.33915658 280.56211414 357.25243414 294.61099856 357.15131924 C309.02883931 357.04841509 323.44642068 356.98734581 337.86461359 356.96502656 C346.76019481 356.94994018 355.65437517 356.90231425 364.54952509 356.81291886 C370.65113759 356.75472574 376.75202706 356.73720869 382.85389685 356.75148485 C386.37386032 356.75852482 389.89137855 356.74782042 393.41090584 356.68873978 C415.65522795 356.3333283 415.65522795 356.3333283 420.59753609 360.4163723 C422.9047634 363.19846123 424.44857222 365.75381222 426 369 C427.45062394 370.82507674 427.45062394 370.82507674 428.96875 372.3125 C433.28823836 376.89862344 437.49128181 381.5207833 441.4375 386.4375 C444.80347852 390.62239279 448.33190525 394.58298647 452 398.5 C458.4134411 405.35308035 464.36498358 412.48664478 470 420 C314.9 420 159.8 420 0 420 C0 281.4 0 142.8 0 0 Z " fill="#000000" transform="translate(2219,2293)"/>
<path d="M0 0 C155.43 0 310.86 0 471 0 C468.58701601 4.02163999 466.52529872 6.77468232 463.375 10.125 C459.9516685 13.8261671 456.66176549 17.57310976 453.5 21.5 C449.66280969 26.25595419 445.60614899 30.75504801 441.46875 35.25 C438.28159538 38.80024818 435.30519735 42.50069257 432.3125 46.21484375 C429.00209243 50.20187179 425.49659616 53.99054394 421.96875 57.78515625 C419.97328212 59.83679121 419.97328212 59.83679121 419 62 C322.97 62 226.94 62 128 62 C128 159.68 128 257.36 128 358 C241.52 358 355.04 358 472 358 C468.03242833 363.29009556 464.21537427 368.08820642 459.6875 372.8125 C454.99252226 377.78400482 450.58314998 382.88142177 446.30859375 388.22265625 C443.16762755 392.00138208 439.81577528 395.56273264 436.45654297 399.14672852 C432.43496958 403.46292503 428.69669782 407.93442433 425.03515625 412.5625 C424.36355469 413.366875 423.69195313 414.17125 423 415 C422.28035547 415.86258413 421.56071093 416.72516826 420.81925899 417.6138913 C417.25515062 420.63041089 415.48060696 420.62216323 410.85669994 420.61523914 C409.78904807 420.62389223 409.78904807 420.62389223 408.69982748 420.63272012 C406.30924156 420.64597842 403.92033081 420.62351438 401.52983093 420.60127258 C399.8055227 420.60345963 398.08121608 420.60784409 396.35691833 420.61424255 C391.60411915 420.62547759 386.85188126 420.60536392 382.09915338 420.58036365 C376.90077696 420.55856876 371.70242743 420.56583415 366.50401783 420.56945324 C356.40769884 420.57211434 346.31160173 420.54900074 336.2153398 420.5169466 C324.53990011 420.4809864 312.86459423 420.47697506 301.18908691 420.47302246 C270.35518937 420.44675668 239.52134137 420.37695129 208.6875 420.3125 C139.820625 420.209375 70.95375 420.10625 0 420 C0 281.4 0 142.8 0 0 Z " fill="#000000" transform="translate(1711,2293)"/>
<path d="M0 0 C149.49 0 298.98 0 453 0 C446.32116788 8.90510949 446.32116788 8.90510949 442.6875 12.8125 C439.50716759 16.29115505 436.4626788 19.83413741 433.5 23.5 C429.88967558 27.96276213 426.11572071 32.22719533 422.25 36.46875 C419.14103119 39.96633991 416.22170363 43.60676469 413.28125 47.24609375 C410.22064752 50.94082791 407.00085811 54.47649944 403.75 58.00390625 C401.95218021 59.88450675 401.95218021 59.88450675 401 62 C308.93 62 216.86 62 122 62 C122 93.68 122 125.36 122 158 C225.29 158 328.58 158 435 158 C433.09476825 161.8104635 431.32340956 163.99593882 428.4375 167.0625 C425.0046517 170.75363459 421.72061908 174.50410259 418.5625 178.4375 C414.90364231 182.9739673 411.05131037 187.258661 407.08398438 191.52148438 C404.1129881 194.73281228 401.30046168 198.02618789 398.5625 201.4375 C397.86224323 202.27149228 397.16198647 203.10548456 396.4405098 203.96474934 C393.93924875 206.97470036 393.93924875 206.97470036 391.81641769 210.33507824 C388.54465212 214.99127729 385.11912299 219.07582173 379.50434971 220.73944688 C371.97746218 221.93940364 364.36507522 221.62816023 356.77050781 221.47583008 C354.20719592 221.47215953 351.64387038 221.47422846 349.08056641 221.48158264 C343.57944152 221.48453388 338.08089387 221.44790888 332.58029938 221.37449074 C324.62817593 221.26842091 316.6770193 221.23494084 308.72426519 221.21864685 C295.81920547 221.19025866 282.91521953 221.1039226 270.01074219 220.98071289 C257.48214979 220.86121714 244.95385148 220.76943078 232.42480469 220.71411133 C231.64346987 220.71062736 230.86213505 220.7071434 230.05712342 220.70355386 C223.94573657 220.67651822 217.83434334 220.65107931 211.7229476 220.62614453 C181.81431253 220.50370781 151.90836835 220.24213113 122 220 C122 286 122 352 122 420 C81.74 420 41.48 420 0 420 C0 281.4 0 142.8 0 0 Z " fill="#000000" transform="translate(1042,2293)"/>
<path d="M0 0 C149.49 0 298.98 0 453 0 C449.40839211 4.78881051 446.20529452 9.02818512 442.1875 13.3125 C438.00682 17.84365617 434.08577455 22.52026176 430.21484375 27.31640625 C428.04367173 29.94708557 425.79758643 32.47942424 423.5 35 C419.69733435 39.1789711 416.084537 43.47883621 412.53125 47.87109375 C412.13473205 48.32169505 411.73821409 48.77229635 411.32968044 49.23655224 C409.86228432 51.06186599 409.86228432 51.06186599 408.72037601 53.66790485 C406.63716956 57.25284372 404.62655816 59.9734204 401 62 C392.43468809 64.20213507 383.12926227 63.38659737 374.36694336 63.2487793 C371.6168484 63.2395415 368.86685642 63.24693644 366.11676025 63.25364685 C360.20353683 63.25940172 354.29165336 63.22503235 348.37876701 63.16303062 C339.83007949 63.07344883 331.28203672 63.04496662 322.73293073 63.03116272 C308.86138186 63.00711601 294.99054647 62.93399014 281.11938477 62.82983398 C267.64871783 62.72879055 254.17824502 62.65096483 240.70727539 62.60424805 C239.87626814 62.60135809 239.04526088 62.59846813 238.18907159 62.5954906 C234.01995264 62.58113469 229.85083232 62.56723402 225.68171108 62.55355966 C191.12050692 62.43961339 156.56062313 62.23687771 122 62 C122 93.68 122 125.36 122 158 C225.29 158 328.58 158 435 158 C433.06723074 161.86553853 430.86600496 164.49036264 427.9375 167.5625 C424.31013008 171.43675897 420.82453427 175.35785875 417.5 179.5 C413.86500611 184.01777813 410.0328971 188.27818516 406.0859375 192.51953125 C403.09558642 195.75211747 400.26213671 199.06705866 397.5 202.5 C396.79924504 203.33449047 396.09849009 204.16898094 395.37650013 205.028759 C392.9548916 207.94265014 392.9548916 207.94265014 391.03728008 211.11421585 C387.86161249 215.55463606 384.98475262 219.16603928 379.56283593 220.68096066 C372.04981652 221.80071934 364.4560175 221.50228304 356.8840332 221.36230469 C354.32086853 221.35891706 351.75769222 221.36082516 349.1945343 221.36761475 C343.69081807 221.37034037 338.1892945 221.33649463 332.68602943 221.26876068 C324.72992632 221.17090147 316.77464691 221.13995037 308.81800725 221.12490478 C295.90692884 221.09869252 282.99676432 221.01897577 270.08618164 220.90527344 C257.55074539 220.79499033 245.01555932 220.71025407 232.47973633 220.65917969 C231.69813351 220.65596372 230.9165307 220.65274775 230.11124295 220.64943433 C223.99787049 220.62447874 217.8844926 220.60099653 211.77111256 220.57797956 C181.84656934 220.46493654 151.92431598 220.22348566 122 220 C122 286 122 352 122 420 C81.74 420 41.48 420 0 420 C0 281.4 0 142.8 0 0 Z " fill="#000000" transform="translate(544,2293)"/>
<path d="M0 0 C18.69791651 -0.30433833 37.39532724 -0.53324209 56.09521103 -0.67355824 C64.77899964 -0.74045651 73.46124521 -0.8315737 82.14404297 -0.98071289 C89.71642608 -1.11071661 97.28769145 -1.19425515 104.86115956 -1.22315043 C108.8681252 -1.24003114 112.87189483 -1.27938269 116.87783051 -1.37449074 C143.20242557 -1.97581363 143.20242557 -1.97581363 149.57531738 2.8421936 C152.73330641 5.88553798 154.84005838 9.20186175 157 13 C158.13060716 14.34368702 159.28820505 15.66654746 160.5 16.9375 C162.57174723 19.32527647 164.62176284 21.73098106 166.66796875 24.140625 C172.21916343 30.66627531 177.86145879 37.06258628 183.71411133 43.31958008 C186.7383702 46.57331665 189.60000498 49.90240919 192.375 53.375 C196.60978848 58.65693617 201.19871525 63.53876878 205.84716797 68.45263672 C209.98587046 72.85049683 213.82731544 77.40290295 217.59375 82.125 C220.5974209 85.71380159 223.78475297 89.10119453 227 92.5 C231.78264811 97.55597845 236.29276434 102.71462413 240.6328125 108.16015625 C244.14122134 112.36908897 247.8928165 116.34173907 251.66040039 120.31860352 C252.1939917 120.88377686 252.72758301 121.4489502 253.27734375 122.03125 C253.75421631 122.53205078 254.23108887 123.03285156 254.72241211 123.54882812 C256 125 256 125 258 128 C261.74096588 126.50028094 263.49930257 124.41357286 265.9375 121.25 C269.65191719 116.57781574 273.53937119 112.1630193 277.625 107.8125 C281.60366665 103.57162244 285.53852679 99.3155268 289.3359375 94.91015625 C291.31540126 92.63795489 293.3458317 90.41540128 295.375 88.1875 C298.42858867 84.81059018 301.34429205 81.36782868 304.1875 77.8125 C308.49535504 72.47860593 313.13859865 67.52484514 317.84643555 62.5480957 C321.21411914 58.96961956 324.43345406 55.34462476 327.5 51.5 C331.12710928 46.95257941 335.00599916 42.72201833 339 38.5 C343.7864337 33.44001962 348.29809374 28.27544255 352.64453125 22.828125 C356.06856379 18.71701462 359.72268066 14.83264131 363.39672852 10.94506836 C363.92065186 10.38956299 364.4445752 9.83405762 364.984375 9.26171875 C365.44553711 8.77662842 365.90669922 8.29153809 366.38183594 7.79174805 C368.19607783 5.91494809 368.19607783 5.91494809 369.72801208 2.93058777 C371.68832943 0.60697351 372.76455723 0.0461572 375.7873745 -0.54644871 C379.52232952 -0.74126057 383.23286929 -0.74246873 386.9699707 -0.68115234 C388.40911284 -0.67945912 389.84826016 -0.68041142 391.28739929 -0.68380737 C395.18826072 -0.68552765 399.08801329 -0.65027429 402.98861718 -0.60836363 C407.0671578 -0.57083399 411.14572437 -0.56732954 415.22441101 -0.56021118 C422.94517033 -0.54156877 430.66541938 -0.49234035 438.38595408 -0.43211424 C447.17664073 -0.36502995 455.96735187 -0.33205535 464.75823081 -0.30194163 C482.83910974 -0.23924043 500.91951383 -0.13371755 519 0 C518.04842006 1.11298899 517.09643738 2.22563365 516.14428711 3.33813477 C515.6141954 3.95777603 515.0841037 4.5774173 514.53794861 5.21583557 C512.5797989 7.48747263 510.57712034 9.7158728 508.5625 11.9375 C505.27357978 15.57782404 502.02418821 19.24753475 498.8046875 22.94921875 C496.77041859 25.26088797 494.6977769 27.5353143 492.625 29.8125 C489.57141133 33.18940982 486.65570795 36.63217132 483.8125 40.1875 C478.90996514 46.25320218 473.57741963 51.88164977 468.23046875 57.5546875 C465.2864525 60.68118062 462.4289331 63.86882842 459.62890625 67.125 C457.66334911 69.38751181 455.64326691 71.59690683 453.625 73.8125 C450.57141133 77.18940982 447.65570795 80.63217132 444.8125 84.1875 C439.90996514 90.25320218 434.57741963 95.88164977 429.23046875 101.5546875 C426.2864525 104.68118062 423.4289331 107.86882842 420.62890625 111.125 C418.66334911 113.38751181 416.64326691 115.59690683 414.625 117.8125 C411.57141133 121.18940982 408.65570795 124.63217132 405.8125 128.1875 C400.90595269 134.25816662 395.56799383 139.89068915 390.21875 145.5703125 C386.26683983 149.76808922 382.47654227 154.08290505 378.74560547 158.47753906 C372.67959403 165.62022012 366.54263174 172.66068759 360.15625 179.51953125 C356.93710045 182.97713632 353.78755757 186.48029051 350.69921875 190.0546875 C348.70593572 192.3366529 346.66506973 194.57228574 344.625 196.8125 C341.42347567 200.35160002 338.36853937 203.97103106 335.375 207.6875 C332.22066525 211.59444795 328.9580257 215.20872104 325.3125 218.66015625 C322.19749719 221.84005495 322.84711256 225.59017825 322.84178162 229.75735474 C322.83437465 230.97273306 322.83437465 230.97273306 322.82681805 232.21266448 C322.81139223 234.94271819 322.80306871 237.67274829 322.79467773 240.40283203 C322.7851032 242.35384328 322.77509338 244.30485243 322.76467896 246.25585938 C322.73757778 251.56547561 322.71659649 256.87510079 322.69667697 262.18474817 C322.6748495 267.72880347 322.647445 273.27283105 322.62062073 278.81686401 C322.57064994 289.32115817 322.52572742 299.82546767 322.48259836 310.3297919 C322.42404516 324.52013843 322.3577348 338.71044854 322.29184818 352.90076256 C322.18820491 375.26715053 322.09496136 397.63356959 322 420 C280.42 420 238.84 420 196 420 C196.00902344 405.7996875 196.01804688 391.599375 196.02734375 376.96875 C196.01750797 367.98174268 196.00590979 358.99479512 195.98632812 350.0078125 C195.95556435 335.73788198 195.93207179 321.46820059 195.95532227 307.19824219 C195.97222192 296.8057717 195.96462231 286.4136567 195.92765242 276.02123308 C195.90893251 270.51883186 195.90244791 265.01703182 195.92530632 259.51463318 C195.94644302 254.33347228 195.93477531 249.1534119 195.89815521 243.97234726 C195.89047381 242.07290004 195.89468611 240.1733609 195.91181374 238.27397537 C196.40040832 226.89505232 196.40040832 226.89505232 191.62501526 217.0189209 C190.4404671 215.98471536 189.23322001 214.9756556 188 214 C187.01410889 212.8916891 186.0477563 211.76527549 185.11328125 210.61328125 C179.12108723 203.54762214 172.97780565 196.66179897 166.66796875 189.87890625 C162.4325365 185.3086082 158.36473809 180.60835337 154.33203125 175.859375 C148.73207562 169.27580547 143.0463913 162.8063603 137.15625 156.48046875 C133.94030561 153.02630626 130.79482045 149.52564408 127.70703125 145.95703125 C125.66366569 143.6144085 123.58319141 141.30726578 121.5 139 C116.70092208 133.67665307 111.9592205 128.31136661 107.3203125 122.84765625 C101.72558261 116.26681821 96.04264888 109.80234102 90.15625 103.48046875 C86.93710045 100.02286368 83.78755757 96.51970949 80.69921875 92.9453125 C78.70593572 90.6633471 76.66506973 88.42771426 74.625 86.1875 C71.57141133 82.81059018 68.65570795 79.36782868 65.8125 75.8125 C60.90996514 69.74679782 55.57741963 64.11835023 50.23046875 58.4453125 C47.2864525 55.31881938 44.4289331 52.13117158 41.62890625 48.875 C39.66334911 46.61248819 37.64326691 44.40309317 35.625 42.1875 C32.57141133 38.81059018 29.65570795 35.36782868 26.8125 31.8125 C21.39897813 25.11457488 15.45566271 18.9283465 9.55615234 12.66064453 C7.5745082 10.54593737 5.61806986 8.41144214 3.6875 6.25 C3.17574219 5.67765625 2.66398438 5.1053125 2.13671875 4.515625 C1 3 1 3 0 0 Z " fill="#000000" transform="translate(1,2293)"/>
<path d="M0 0 C41.58 0 83.16 0 126 0 C126 118.14 126 236.28 126 358 C219.06 358 312.12 358 408 358 C404.2600147 362.98664706 400.89326376 367.3575058 396.6875 371.8125 C393.16513928 375.58334335 389.79264264 379.40863118 386.5625 383.4375 C383.19652744 387.62238539 379.6681492 391.58304558 376 395.5 C371.50490835 400.30191415 367.24228272 405.22632083 363.1328125 410.3671875 C362.42898438 411.23601563 361.72515625 412.10484375 361 413 C360.66286889 413.58039301 360.32573778 414.16078603 359.97839057 414.75876671 C357.77693543 418.09109367 356.08650983 419.7572711 352.11890626 420.64364326 C348.33690892 420.88569611 344.58728329 420.90007346 340.80130005 420.84178162 C339.33535346 420.84484506 337.86941061 420.85098623 336.40348816 420.85993958 C332.37067087 420.87563907 328.33915475 420.84755305 324.30650273 420.8125091 C319.89289285 420.7819522 315.47934338 420.79217068 311.06565666 420.79723454 C302.49703393 420.80095706 293.92892446 420.76862805 285.36043363 420.72372523 C275.44979235 420.67334278 265.53945974 420.66776307 255.62866211 420.66223145 C229.46069334 420.6254727 203.29283898 420.52774494 177.125 420.4375 C118.67375 420.293125 60.2225 420.14875 0 420 C0 281.4 0 142.8 0 0 Z " fill="#010101" transform="translate(2726,2293)"/>
<path d="M0 0 C41.25 0 82.5 0 125 0 C125 118.14 125 236.28 125 358 C218.39 358 311.78 358 408 358 C404.40839211 362.78881051 401.20529452 367.02818512 397.1875 371.3125 C393.84825689 374.93084403 390.6476694 378.60038967 387.5625 382.4375 C383.42421475 387.56457907 379.03217409 392.39915923 374.55859375 397.23046875 C372.49258287 399.46680725 370.44859188 401.71445323 368.4375 404 C367.92470486 404.57186751 367.41190971 405.14373502 366.88357532 405.73293185 C364.89404205 408.05218678 364.89404205 408.05218678 362.99289048 410.96489263 C357.00504897 419.31797115 357.00504897 419.31797115 351.75032973 421.10539389 C347.91262095 421.50950488 344.16863096 421.54553078 340.32028198 421.4430542 C338.8508588 421.44831199 337.38144673 421.45885112 335.91209412 421.47418213 C331.88734919 421.50098207 327.86646634 421.45312217 323.84221181 421.39287275 C319.43152632 421.34031627 315.02100716 421.35801802 310.61009407 421.36668777 C302.05505297 421.37305755 293.50152823 421.31775459 284.94687635 421.24067183 C275.04785066 421.15415181 265.14973116 421.14472889 255.25024414 421.13525391 C229.12492301 421.07229107 202.99993863 420.90475696 176.875 420.75 C89.321875 420.37875 89.321875 420.37875 0 420 C0 281.4 0 142.8 0 0 Z " fill="#000000" transform="translate(3170,2293)"/>
<path d="M0 0 C0.33 0 0.66 0 1 0 C1 117.81 1 235.62 1 357 C94.39 357 187.78 357 284 357 C284 377.79 284 398.58 284 420 C266.18 420 248.36 420 230 420 C232.96715621 415.54926569 235.57830819 412.13001457 239.1875 408.3125 C242.77206121 404.47940921 246.2112351 400.59466044 249.5 396.5 C252.69932154 392.52370037 256.02589136 388.73336152 259.5 385 C263.74483754 380.43707577 267.75371822 375.742322 271.63671875 370.86328125 C274.97912164 366.81372535 278.5115799 362.92447261 282 359 C188.94 358.67 95.88 358.34 0 358 C0 239.86 0 121.72 0 0 Z " fill="#E2E2E2" transform="translate(3295,2293)"/>
</svg>
